# Blender v2.80 (sub 75) OBJ File: 'Seaweed.blend'
# www.blender.org
mtllib Seaweed.mtl
o Seaweed_Cube.001
v -0.500000 0.000000 0.500000
v -0.500000 1.000000 0.500000
v -0.500000 0.000000 -0.500000
v -0.500000 1.000000 -0.500000
v 0.500000 0.000000 0.500000
v 0.500000 1.000000 0.500000
v 0.500000 0.000000 -0.500000
v 0.500000 1.000000 -0.500000
v -1.000000 0.000000 -0.500000
v -1.000000 0.000000 0.500000
v -1.000000 1.000000 0.500000
v -1.000000 1.000000 -0.500000
v 1.000000 1.000000 -0.500000
v 1.000000 0.000000 -0.500000
v 1.000000 0.000000 0.500000
v 1.000000 1.000000 0.500000
v -0.500000 2.000000 0.500000
v -0.500000 2.000000 -0.500000
v 0.500000 2.000000 -0.500000
v 0.500000 2.000000 0.500000
v -0.500000 3.000000 0.500000
v -0.500000 3.000000 -0.500000
v 0.500000 3.000000 -0.500000
v 0.500000 3.000000 0.500000
v -0.500000 4.000000 0.500000
v -0.500000 4.000000 -0.500000
v 0.500000 4.000000 -0.500000
v 0.500000 4.000000 0.500000
v -0.500000 5.000000 0.500000
v -0.500000 5.000000 -0.500000
v 0.500000 5.000000 -0.500000
v 0.500000 5.000000 0.500000
v -0.500000 6.000000 0.500000
v -0.500000 6.000000 -0.500000
v 0.500000 6.000000 -0.500000
v 0.500000 6.000000 0.500000
v -0.500000 7.000000 0.500000
v -0.500000 7.000000 -0.500000
v 0.500000 7.000000 -0.500000
v 0.500000 7.000000 0.500000
v -0.500000 8.000000 0.500000
v -0.500000 8.000000 -0.500000
v 0.500000 8.000000 -0.500000
v 0.500000 8.000000 0.500000
v -0.500000 9.000000 0.500000
v -0.500000 9.000000 -0.500000
v 0.500000 9.000000 -0.500000
v 0.500000 9.000000 0.500000
v -0.500000 10.000000 0.500000
v -0.500000 10.000000 -0.500000
v 0.500000 10.000000 -0.500000
v 0.500000 10.000000 0.500000
v -1.000000 8.000000 0.500000
v -1.000000 8.000000 -0.500000
v -1.000000 9.000000 0.500000
v -1.000000 9.000000 -0.500000
v -1.000000 6.000000 0.500000
v -1.000000 6.000000 -0.500000
v -1.000000 7.000000 0.500000
v -1.000000 7.000000 -0.500000
v -1.000000 2.000000 0.500000
v -1.000000 2.000000 -0.500000
v -1.000000 3.000000 0.500000
v -1.000000 3.000000 -0.500000
v -1.000000 4.000000 0.500000
v -1.000000 4.000000 -0.500000
v -1.000000 5.000000 0.500000
v -1.000000 5.000000 -0.500000
v 1.000000 2.000000 -0.500000
v 1.000000 2.000000 0.500000
v 1.000000 3.000000 -0.500000
v 1.000000 3.000000 0.500000
v 1.000000 4.000000 -0.500000
v 1.000000 4.000000 0.500000
v 1.000000 5.000000 -0.500000
v 1.000000 5.000000 0.500000
v 1.000000 6.000000 -0.500000
v 1.000000 6.000000 0.500000
v 1.000000 7.000000 -0.500000
v 1.000000 7.000000 0.500000
v 1.000000 8.000000 -0.500000
v 1.000000 8.000000 0.500000
v 1.000000 9.000000 -0.500000
v 1.000000 9.000000 0.500000
vt 0.875000 0.750000
vt 0.875000 0.500000
vt 0.875000 0.500000
vt 0.875000 0.750000
vt 0.375000 0.250000
vt 0.625000 0.250000
vt 0.625000 0.500000
vt 0.375000 0.500000
vt 0.625000 0.750000
vt 0.375000 0.750000
vt 0.375000 0.750000
vt 0.625000 0.750000
vt 0.625000 1.000000
vt 0.375000 1.000000
vt 0.125000 0.500000
vt 0.125000 0.750000
vt 0.875000 0.750000
vt 0.875000 0.500000
vt 0.375000 0.000000
vt 0.625000 0.000000
vt 0.625000 0.250000
vt 0.375000 0.250000
vt 0.125000 0.750000
vt 0.125000 0.500000
vt 0.625000 1.000000
vt 0.375000 1.000000
vt 0.375000 0.500000
vt 0.625000 0.500000
vt 0.625000 1.000000
vt 0.625000 0.750000
vt 0.625000 0.750000
vt 0.625000 1.000000
vt 0.625000 0.250000
vt 0.625000 0.500000
vt 0.625000 0.500000
vt 0.625000 0.500000
vt 0.625000 0.750000
vt 0.625000 0.250000
vt 0.625000 0.500000
vt 0.625000 0.750000
vt 0.625000 0.750000
vt 0.625000 0.500000
vt 0.625000 0.250000
vt 0.625000 0.250000
vt 0.625000 0.500000
vt 0.625000 0.500000
vt 0.625000 0.500000
vt 0.625000 0.500000
vt 0.875000 0.500000
vt 0.875000 0.750000
vt 0.875000 0.750000
vt 0.875000 0.500000
vt 0.625000 1.000000
vt 0.625000 0.250000
vt 0.625000 1.000000
vt 0.625000 0.750000
vt 0.625000 1.000000
vt 0.875000 0.750000
vt 0.875000 0.500000
vt 0.625000 0.250000
vt 0.625000 0.500000
vt 0.625000 0.750000
vt 0.625000 0.250000
vt 0.625000 0.500000
vt 0.875000 0.500000
vt 0.875000 0.750000
vt 0.875000 0.750000
vt 0.875000 0.500000
vt 0.875000 0.500000
vt 0.875000 0.750000
vt 0.875000 0.750000
vt 0.875000 0.500000
vt 0.875000 0.500000
vt 0.875000 0.750000
vt 0.625000 0.750000
vt 0.625000 1.000000
vt 0.625000 0.250000
vt 0.625000 0.500000
vt 0.625000 1.000000
vt 0.625000 0.750000
vt 0.625000 0.750000
vt 0.625000 1.000000
vt 0.625000 0.250000
vt 0.625000 0.500000
vt 0.625000 0.750000
vt 0.625000 0.250000
vt 0.625000 0.750000
vt 0.625000 0.500000
vt 0.625000 0.250000
vt 0.625000 0.250000
vt 0.875000 0.500000
vt 0.875000 0.750000
vt 0.875000 0.500000
vt 0.875000 0.750000
vt 0.625000 1.000000
vt 0.625000 0.250000
vt 0.875000 0.500000
vt 0.875000 0.750000
vt 0.875000 0.750000
vt 0.875000 0.500000
vt 0.625000 1.000000
vt 0.625000 1.000000
vt 0.875000 0.500000
vt 0.875000 0.750000
vt 0.625000 0.250000
vt 0.625000 0.250000
vt 0.625000 1.000000
vt 0.625000 1.000000
vt 0.875000 0.500000
vt 0.875000 0.750000
vt 0.875000 0.750000
vt 0.875000 0.500000
vt 0.875000 0.750000
vt 0.875000 0.500000
vt 0.625000 1.000000
vt 0.625000 1.000000
vt 0.625000 1.000000
vt 0.625000 1.000000
vt 0.625000 0.250000
vt 0.625000 0.250000
vt 0.625000 0.750000
vt 0.625000 0.500000
vt 0.625000 0.750000
vt 0.625000 0.500000
vt 0.625000 0.500000
vt 0.625000 0.750000
vt 0.625000 0.750000
vt 0.625000 0.750000
vn 0.0000 1.0000 0.0000
vn 0.0000 0.0000 -1.0000
vn 0.0000 0.0000 1.0000
vn 0.0000 -1.0000 0.0000
vn -1.0000 0.0000 0.0000
vn 1.0000 0.0000 0.0000
usemtl Seaweed
s off
f 2/1/1 4/2/1 12/3/1 11/4/1
f 3/5/2 4/6/2 8/7/2 7/8/2
f 6/9/3 5/10/3 15/11/3 16/12/3
f 5/10/3 6/9/3 2/13/3 1/14/3
f 3/15/4 7/8/4 5/10/4 1/16/4
f 4/2/5 2/1/5 17/17/5 18/18/5
f 10/19/5 11/20/5 12/21/5 9/22/5
f 3/15/4 1/16/4 10/23/4 9/24/4
f 4/6/2 3/5/2 9/22/2 12/21/2
f 1/14/3 2/13/3 11/25/3 10/26/3
f 14/27/6 13/28/6 16/12/6 15/11/6
f 5/10/4 7/8/4 14/27/4 15/11/4
f 8/7/1 6/9/1 16/12/1 13/28/1
f 7/8/2 8/7/2 13/28/2 14/27/2
f 17/29/3 20/30/3 24/31/3 21/32/3
f 2/13/3 6/9/3 20/30/3 17/29/3
f 8/7/2 4/6/2 18/33/2 19/34/2
f 6/9/6 8/7/6 19/34/6 20/30/6
f 24/31/6 23/35/6 27/36/6 28/37/6
f 19/34/2 18/33/2 22/38/2 23/35/2
f 31/39/1 32/40/1 76/41/1 75/42/1
f 22/38/2 18/33/2 62/43/2 64/44/2
f 43/45/2 47/46/2 83/47/2 81/48/2
f 22/49/5 21/50/5 25/51/5 26/52/5
f 21/32/3 24/31/3 28/37/3 25/53/3
f 23/35/2 22/38/2 26/54/2 27/36/2
f 29/55/3 32/40/3 36/56/3 33/57/3
f 26/52/4 25/51/4 65/58/4 66/59/4
f 25/53/3 28/37/3 32/40/3 29/55/3
f 27/36/2 26/54/2 30/60/2 31/39/2
f 28/37/4 27/36/4 73/61/4 74/62/4
f 31/39/2 30/60/2 34/63/2 35/64/2
f 32/40/6 31/39/6 35/64/6 36/56/6
f 30/65/5 29/66/5 33/67/5 34/68/5
f 38/69/5 37/70/5 41/71/5 42/72/5
f 37/70/1 38/69/1 60/73/1 59/74/1
f 33/57/3 36/56/3 40/75/3 37/76/3
f 35/64/2 34/63/2 38/77/2 39/78/2
f 41/79/3 44/80/3 48/81/3 45/82/3
f 37/76/3 40/75/3 44/80/3 41/79/3
f 39/78/2 38/77/2 42/83/2 43/45/2
f 40/75/6 39/78/6 43/45/6 44/80/6
f 48/81/6 47/46/6 51/84/6 52/85/6
f 43/45/2 42/83/2 46/86/2 47/46/2
f 23/35/1 24/31/1 72/87/1 71/88/1
f 46/86/2 42/83/2 54/89/2 56/90/2
f 51/84/1 50/91/1 49/92/1 52/85/1
f 46/93/5 45/94/5 49/92/5 50/91/5
f 45/82/3 48/81/3 52/85/3 49/95/3
f 47/46/2 46/86/2 50/96/2 51/84/2
f 54/97/5 53/98/5 55/99/5 56/100/5
f 45/94/1 46/93/1 56/100/1 55/99/1
f 41/79/3 45/82/3 55/101/3 53/102/3
f 42/72/4 41/71/4 53/98/4 54/97/4
f 58/103/5 57/104/5 59/74/5 60/73/5
f 38/77/2 34/63/2 58/105/2 60/106/2
f 34/68/4 33/67/4 57/104/4 58/103/4
f 33/57/3 37/76/3 59/107/3 57/108/3
f 62/109/5 61/110/5 63/111/5 64/112/5
f 66/59/5 65/58/5 67/113/5 68/114/5
f 25/53/3 29/55/3 67/115/3 65/116/3
f 21/50/1 22/49/1 64/112/1 63/111/1
f 29/66/1 30/65/1 68/114/1 67/113/1
f 17/29/3 21/32/3 63/117/3 61/118/3
f 18/18/4 17/17/4 61/110/4 62/109/4
f 30/60/2 26/54/2 66/119/2 68/120/2
f 70/121/6 69/122/6 71/88/6 72/87/6
f 74/62/6 73/61/6 75/42/6 76/41/6
f 78/123/6 77/124/6 79/125/6 80/126/6
f 82/127/6 81/48/6 83/47/6 84/128/6
f 36/56/4 35/64/4 77/124/4 78/123/4
f 24/31/3 20/30/3 70/121/3 72/87/3
f 39/78/1 40/75/1 80/126/1 79/125/1
f 44/80/4 43/45/4 81/48/4 82/127/4
f 27/36/2 31/39/2 75/42/2 73/61/2
f 47/46/1 48/81/1 84/128/1 83/47/1
f 32/40/3 28/37/3 74/62/3 76/41/3
f 35/64/2 39/78/2 79/125/2 77/124/2
f 19/34/2 23/35/2 71/88/2 69/122/2
f 40/75/3 36/56/3 78/123/3 80/126/3
f 48/81/3 44/80/3 82/127/3 84/128/3
f 20/30/4 19/34/4 69/122/4 70/121/4
