# MagicaVoxel @ Ephtracy

# group
o 

# material
mtllib grass_pax_decoration_corner.mtl
usemtl palette

# normals
vn -1 0 0
vn 1 0 0
vn 0 0 1
vn 0 0 -1
vn 0 -1 0
vn 0 1 0

# texcoords
vt 0.892578 0.5

# verts
v -0.1 0 0.1
v -0.1 0 0
v -0.1 0.1 0
v -0.1 0.1 -0.2
v -0.1 0.4 0.1
v -0.1 0.4 -0.2
v 0 0 0.1
v 0 0 0
v 0 0.1 0.1
v 0 0.1 0
v 0 0.1 -0.2
v 0 0.4 0
v 0 0.4 -0.2
v 0.2 0.1 0.1
v 0.2 0.1 0
v 0.2 0.4 0.1
v 0.2 0.4 0
v -0.1 0 0.1
v -0.1 0.4 0.1
v 0 0 0.1
v 0 0.1 0.1
v 0.2 0.1 0.1
v 0.2 0.4 0.1
v -0.1 0 0
v -0.1 0.1 0
v 0 0 0
v 0 0.1 0
v 0 0.4 0
v 0.2 0.1 0
v 0.2 0.4 0
v -0.1 0.1 -0.2
v -0.1 0.4 -0.2
v 0 0.1 -0.2
v 0 0.4 -0.2
v -0.1 0 0.1
v 0 0 0.1
v -0.1 0 0
v 0 0 0
v 0 0.1 0.1
v 0.2 0.1 0.1
v -0.1 0.1 0
v 0 0.1 0
v 0.2 0.1 0
v -0.1 0.1 -0.2
v 0 0.1 -0.2
v -0.1 0.4 0.1
v 0.2 0.4 0.1
v 0 0.4 0
v 0.2 0.4 0
v -0.1 0.4 -0.2
v 0 0.4 -0.2

# faces
f 3/1/1 2/1/1 1/1/1
f 5/1/1 3/1/1 1/1/1
f 5/1/1 4/1/1 3/1/1
f 6/1/1 4/1/1 5/1/1
f 7/1/2 8/1/2 9/1/2
f 9/1/2 8/1/2 10/1/2
f 10/1/2 11/1/2 12/1/2
f 12/1/2 11/1/2 13/1/2
f 14/1/2 15/1/2 16/1/2
f 16/1/2 15/1/2 17/1/2
f 20/1/3 19/1/3 18/1/3
f 21/1/3 19/1/3 20/1/3
f 22/1/3 19/1/3 21/1/3
f 23/1/3 19/1/3 22/1/3
f 24/1/4 25/1/4 26/1/4
f 26/1/4 25/1/4 27/1/4
f 27/1/4 28/1/4 29/1/4
f 29/1/4 28/1/4 30/1/4
f 31/1/4 32/1/4 33/1/4
f 33/1/4 32/1/4 34/1/4
f 37/1/5 36/1/5 35/1/5
f 38/1/5 36/1/5 37/1/5
f 42/1/5 40/1/5 39/1/5
f 43/1/5 40/1/5 42/1/5
f 44/1/5 42/1/5 41/1/5
f 45/1/5 42/1/5 44/1/5
f 46/1/6 47/1/6 48/1/6
f 48/1/6 47/1/6 49/1/6
f 46/1/6 48/1/6 50/1/6
f 50/1/6 48/1/6 51/1/6
