# MagicaVoxel @ Ephtracy

# group
g oneside

# material
mtllib oneside.mtl
usemtl palette

# normals
vn -1 0 0
vn 1 0 0
vn 0 0 1
vn 0 0 -1
vn 0 -1 0
vn 0 1 0

# texcoords
vt 0.00195313 0.5
vt 0.00585938 0.5
vt 0.0527344 0.5
vt 0.0800781 0.5
vt 0.197266 0.5
vt 0.275391 0.5
vt 0.294922 0.5
vt 0.298828 0.5
vt 0.302734 0.5
vt 0.310547 0.5
vt 0.314453 0.5
vt 0.349609 0.5
vt 0.353516 0.5
vt 0.357422 0.5
vt 0.365234 0.5
vt 0.369141 0.5
vt 0.373047 0.5
vt 0.400391 0.5
vt 0.416016 0.5
vt 0.423828 0.5
vt 0.439453 0.5
vt 0.451172 0.5
vt 0.458984 0.5
vt 0.474609 0.5
vt 0.517578 0.5
vt 0.548828 0.5
vt 0.595703 0.5
vt 0.751953 0.5
vt 0.939453 0.5
vt 0.955078 0.5
vt 0.970703 0.5

# verts
v -8.5 0 8.5
v -8.5 0 7.5
v -8.5 0 6.5
v -8.5 0 5.5
v -8.5 0 4.5
v -8.5 0 3.5
v -8.5 0 2.5
v -8.5 0 1.5
v -8.5 0 0.5
v -8.5 0 -0.5
v -8.5 0 -1.5
v -8.5 0 -2.5
v -8.5 0 -3.5
v -8.5 0 -4.5
v -8.5 0 -5.5
v -8.5 0 -6.5
v -8.5 0 -7.5
v -8.5 0 -8.5
v -8.5 1 8.5
v -8.5 1 7.5
v -8.5 1 6.5
v -8.5 1 5.5
v -8.5 1 4.5
v -8.5 1 3.5
v -8.5 1 2.5
v -8.5 1 1.5
v -8.5 1 0.5
v -8.5 1 -0.5
v -8.5 1 -1.5
v -8.5 1 -2.5
v -8.5 1 -3.5
v -8.5 1 -4.5
v -8.5 1 -5.5
v -8.5 1 -6.5
v -8.5 1 -7.5
v -8.5 1 -8.5
v 8.5 0 8.5
v 8.5 0 -8.5
v 8.5 1 8.5
v 8.5 1 -8.5
v -8.5 0 8.5
v -8.5 1 8.5
v -7.5 0 8.5
v -7.5 1 8.5
v -6.5 0 8.5
v -6.5 1 8.5
v -4.5 0 8.5
v -4.5 1 8.5
v -3.5 0 8.5
v -3.5 1 8.5
v -2.5 0 8.5
v -2.5 1 8.5
v 8.5 0 8.5
v 8.5 1 8.5
v -8.5 0 -8.5
v -8.5 1 -8.5
v -7.5 0 -8.5
v -7.5 1 -8.5
v -6.5 0 -8.5
v -6.5 1 -8.5
v -5.5 0 -8.5
v -5.5 1 -8.5
v -4.5 0 -8.5
v -4.5 1 -8.5
v -3.5 0 -8.5
v -3.5 1 -8.5
v -2.5 0 -8.5
v -2.5 1 -8.5
v 8.5 0 -8.5
v 8.5 1 -8.5
v -8.5 0 8.5
v -7.5 0 8.5
v -6.5 0 8.5
v -4.5 0 8.5
v -3.5 0 8.5
v -2.5 0 8.5
v 8.5 0 8.5
v -8.5 0 7.5
v -7.5 0 7.5
v -6.5 0 7.5
v -5.5 0 7.5
v -4.5 0 7.5
v -3.5 0 7.5
v -2.5 0 7.5
v -8.5 0 6.5
v -7.5 0 6.5
v -6.5 0 6.5
v -5.5 0 6.5
v -4.5 0 6.5
v -3.5 0 6.5
v -2.5 0 6.5
v -1.5 0 6.5
v 0.5 0 6.5
v 1.5 0 6.5
v -8.5 0 5.5
v -7.5 0 5.5
v -4.5 0 5.5
v -3.5 0 5.5
v -2.5 0 5.5
v -1.5 0 5.5
v 0.5 0 5.5
v 1.5 0 5.5
v -8.5 0 4.5
v -7.5 0 4.5
v -6.5 0 4.5
v -5.5 0 4.5
v -4.5 0 4.5
v -3.5 0 4.5
v -2.5 0 4.5
v -8.5 0 3.5
v -7.5 0 3.5
v -6.5 0 3.5
v -5.5 0 3.5
v -4.5 0 3.5
v -3.5 0 3.5
v -2.5 0 3.5
v 5.5 0 3.5
v 6.5 0 3.5
v -8.5 0 2.5
v -7.5 0 2.5
v -6.5 0 2.5
v -5.5 0 2.5
v -4.5 0 2.5
v -3.5 0 2.5
v -2.5 0 2.5
v -1.5 0 2.5
v 5.5 0 2.5
v 6.5 0 2.5
v -8.5 0 1.5
v -7.5 0 1.5
v -6.5 0 1.5
v -5.5 0 1.5
v -4.5 0 1.5
v -3.5 0 1.5
v -2.5 0 1.5
v -1.5 0 1.5
v 1.5 0 1.5
v 2.5 0 1.5
v -8.5 0 0.5
v -7.5 0 0.5
v -6.5 0 0.5
v -5.5 0 0.5
v -4.5 0 0.5
v -3.5 0 0.5
v -2.5 0 0.5
v 1.5 0 0.5
v 2.5 0 0.5
v -8.5 0 -0.5
v -7.5 0 -0.5
v -6.5 0 -0.5
v -5.5 0 -0.5
v -4.5 0 -0.5
v -3.5 0 -0.5
v -2.5 0 -0.5
v -1.5 0 -0.5
v -0.5 0 -0.5
v -8.5 0 -1.5
v -7.5 0 -1.5
v -6.5 0 -1.5
v -5.5 0 -1.5
v -4.5 0 -1.5
v -3.5 0 -1.5
v -2.5 0 -1.5
v -1.5 0 -1.5
v -0.5 0 -1.5
v -8.5 0 -2.5
v -7.5 0 -2.5
v -6.5 0 -2.5
v -5.5 0 -2.5
v -4.5 0 -2.5
v -2.5 0 -2.5
v -1.5 0 -2.5
v -0.5 0 -2.5
v -8.5 0 -3.5
v -7.5 0 -3.5
v -5.5 0 -3.5
v -4.5 0 -3.5
v -3.5 0 -3.5
v -2.5 0 -3.5
v -1.5 0 -3.5
v -0.5 0 -3.5
v -8.5 0 -4.5
v -7.5 0 -4.5
v -6.5 0 -4.5
v -5.5 0 -4.5
v -4.5 0 -4.5
v -3.5 0 -4.5
v -2.5 0 -4.5
v -0.5 0 -4.5
v -8.5 0 -5.5
v -7.5 0 -5.5
v -6.5 0 -5.5
v -5.5 0 -5.5
v -4.5 0 -5.5
v -3.5 0 -5.5
v -2.5 0 -5.5
v -0.5 0 -5.5
v -8.5 0 -6.5
v -7.5 0 -6.5
v -6.5 0 -6.5
v -5.5 0 -6.5
v -4.5 0 -6.5
v -3.5 0 -6.5
v -2.5 0 -6.5
v -8.5 0 -7.5
v -7.5 0 -7.5
v -6.5 0 -7.5
v -5.5 0 -7.5
v -4.5 0 -7.5
v -3.5 0 -7.5
v -2.5 0 -7.5
v -8.5 0 -8.5
v -7.5 0 -8.5
v -6.5 0 -8.5
v -5.5 0 -8.5
v -4.5 0 -8.5
v -3.5 0 -8.5
v -2.5 0 -8.5
v 8.5 0 -8.5
v -8.5 1 8.5
v -7.5 1 8.5
v -6.5 1 8.5
v -4.5 1 8.5
v -3.5 1 8.5
v -2.5 1 8.5
v 8.5 1 8.5
v -8.5 1 7.5
v -7.5 1 7.5
v -6.5 1 7.5
v -5.5 1 7.5
v -4.5 1 7.5
v -3.5 1 7.5
v -2.5 1 7.5
v -8.5 1 6.5
v -7.5 1 6.5
v -6.5 1 6.5
v -5.5 1 6.5
v -4.5 1 6.5
v -3.5 1 6.5
v -2.5 1 6.5
v -1.5 1 6.5
v 0.5 1 6.5
v 1.5 1 6.5
v -8.5 1 5.5
v -7.5 1 5.5
v -4.5 1 5.5
v -3.5 1 5.5
v -2.5 1 5.5
v -1.5 1 5.5
v 0.5 1 5.5
v 1.5 1 5.5
v -8.5 1 4.5
v -7.5 1 4.5
v -6.5 1 4.5
v -5.5 1 4.5
v -4.5 1 4.5
v -3.5 1 4.5
v -2.5 1 4.5
v -8.5 1 3.5
v -7.5 1 3.5
v -6.5 1 3.5
v -5.5 1 3.5
v -4.5 1 3.5
v -3.5 1 3.5
v -2.5 1 3.5
v 5.5 1 3.5
v 6.5 1 3.5
v -8.5 1 2.5
v -7.5 1 2.5
v -6.5 1 2.5
v -5.5 1 2.5
v -4.5 1 2.5
v -3.5 1 2.5
v -2.5 1 2.5
v -1.5 1 2.5
v 5.5 1 2.5
v 6.5 1 2.5
v -8.5 1 1.5
v -7.5 1 1.5
v -6.5 1 1.5
v -5.5 1 1.5
v -4.5 1 1.5
v -3.5 1 1.5
v -2.5 1 1.5
v -1.5 1 1.5
v 1.5 1 1.5
v 2.5 1 1.5
v -8.5 1 0.5
v -7.5 1 0.5
v -6.5 1 0.5
v -5.5 1 0.5
v -4.5 1 0.5
v -3.5 1 0.5
v -2.5 1 0.5
v 1.5 1 0.5
v 2.5 1 0.5
v -8.5 1 -0.5
v -7.5 1 -0.5
v -6.5 1 -0.5
v -5.5 1 -0.5
v -4.5 1 -0.5
v -3.5 1 -0.5
v -2.5 1 -0.5
v -1.5 1 -0.5
v -0.5 1 -0.5
v -8.5 1 -1.5
v -7.5 1 -1.5
v -6.5 1 -1.5
v -5.5 1 -1.5
v -4.5 1 -1.5
v -3.5 1 -1.5
v -2.5 1 -1.5
v -1.5 1 -1.5
v -0.5 1 -1.5
v -8.5 1 -2.5
v -7.5 1 -2.5
v -6.5 1 -2.5
v -5.5 1 -2.5
v -4.5 1 -2.5
v -2.5 1 -2.5
v -1.5 1 -2.5
v -0.5 1 -2.5
v -8.5 1 -3.5
v -7.5 1 -3.5
v -5.5 1 -3.5
v -4.5 1 -3.5
v -3.5 1 -3.5
v -2.5 1 -3.5
v -1.5 1 -3.5
v -0.5 1 -3.5
v -8.5 1 -4.5
v -7.5 1 -4.5
v -6.5 1 -4.5
v -5.5 1 -4.5
v -4.5 1 -4.5
v -3.5 1 -4.5
v -2.5 1 -4.5
v -0.5 1 -4.5
v -8.5 1 -5.5
v -7.5 1 -5.5
v -6.5 1 -5.5
v -5.5 1 -5.5
v -4.5 1 -5.5
v -3.5 1 -5.5
v -2.5 1 -5.5
v -0.5 1 -5.5
v -8.5 1 -6.5
v -7.5 1 -6.5
v -6.5 1 -6.5
v -5.5 1 -6.5
v -4.5 1 -6.5
v -3.5 1 -6.5
v -2.5 1 -6.5
v -8.5 1 -7.5
v -7.5 1 -7.5
v -6.5 1 -7.5
v -5.5 1 -7.5
v -4.5 1 -7.5
v -3.5 1 -7.5
v -2.5 1 -7.5
v -8.5 1 -8.5
v -7.5 1 -8.5
v -6.5 1 -8.5
v -5.5 1 -8.5
v -4.5 1 -8.5
v -3.5 1 -8.5
v -2.5 1 -8.5
v 8.5 1 -8.5

# faces
f 19/9/1 2/9/1 1/9/1
f 20/30/1 3/30/1 2/30/1
f 20/9/1 2/9/1 19/9/1
f 21/29/1 4/29/1 3/29/1
f 21/30/1 3/30/1 20/30/1
f 22/31/1 5/31/1 4/31/1
f 22/29/1 4/29/1 21/29/1
f 23/29/1 6/29/1 5/29/1
f 23/31/1 5/31/1 22/31/1
f 24/5/1 7/5/1 6/5/1
f 24/29/1 6/29/1 23/29/1
f 25/3/1 8/3/1 7/3/1
f 25/5/1 7/5/1 24/5/1
f 26/30/1 9/30/1 8/30/1
f 26/3/1 8/3/1 25/3/1
f 27/23/1 10/23/1 9/23/1
f 27/30/1 9/30/1 26/30/1
f 28/30/1 11/30/1 10/30/1
f 28/23/1 10/23/1 27/23/1
f 29/23/1 12/23/1 11/23/1
f 29/30/1 11/30/1 28/30/1
f 30/9/1 13/9/1 12/9/1
f 30/23/1 12/23/1 29/23/1
f 31/30/1 14/30/1 13/30/1
f 31/9/1 13/9/1 30/9/1
f 32/29/1 15/29/1 14/29/1
f 32/30/1 14/30/1 31/30/1
f 33/31/1 16/31/1 15/31/1
f 33/29/1 15/29/1 32/29/1
f 34/29/1 17/29/1 16/29/1
f 34/31/1 16/31/1 33/31/1
f 35/5/1 18/5/1 17/5/1
f 35/29/1 17/29/1 34/29/1
f 36/5/1 18/5/1 35/5/1
f 37/9/2 38/9/2 39/9/2
f 39/9/2 38/9/2 40/9/2
f 43/9/3 42/9/3 41/9/3
f 44/9/3 42/9/3 43/9/3
f 45/23/3 44/23/3 43/23/3
f 46/23/3 44/23/3 45/23/3
f 47/30/3 46/30/3 45/30/3
f 48/30/3 46/30/3 47/30/3
f 49/31/3 48/31/3 47/31/3
f 50/31/3 48/31/3 49/31/3
f 51/29/3 50/29/3 49/29/3
f 52/29/3 50/29/3 51/29/3
f 53/9/3 52/9/3 51/9/3
f 54/9/3 52/9/3 53/9/3
f 55/5/4 56/5/4 57/5/4
f 57/5/4 56/5/4 58/5/4
f 57/16/4 58/16/4 59/16/4
f 59/16/4 58/16/4 60/16/4
f 59/13/4 60/13/4 61/13/4
f 61/13/4 60/13/4 62/13/4
f 61/14/4 62/14/4 63/14/4
f 63/14/4 62/14/4 64/14/4
f 63/16/4 64/16/4 65/16/4
f 65/16/4 64/16/4 66/16/4
f 65/10/4 66/10/4 67/10/4
f 67/10/4 66/10/4 68/10/4
f 67/9/4 68/9/4 69/9/4
f 69/9/4 68/9/4 70/9/4
f 78/9/5 72/9/5 71/9/5
f 79/23/5 73/23/5 72/23/5
f 79/9/5 72/9/5 78/9/5
f 80/30/5 74/30/5 73/30/5
f 80/23/5 73/23/5 79/23/5
f 81/30/5 74/30/5 80/30/5
f 82/31/5 75/31/5 74/31/5
f 82/30/5 74/30/5 81/30/5
f 83/29/5 76/29/5 75/29/5
f 83/31/5 75/31/5 82/31/5
f 84/9/5 77/9/5 76/9/5
f 84/29/5 76/29/5 83/29/5
f 85/30/5 79/30/5 78/30/5
f 86/14/5 80/14/5 79/14/5
f 86/30/5 79/30/5 85/30/5
f 87/16/5 81/16/5 80/16/5
f 87/14/5 80/14/5 86/14/5
f 88/20/5 82/20/5 81/20/5
f 88/16/5 81/16/5 87/16/5
f 89/16/5 83/16/5 82/16/5
f 89/20/5 82/20/5 88/20/5
f 90/27/5 84/27/5 83/27/5
f 90/16/5 83/16/5 89/16/5
f 91/9/5 77/9/5 84/9/5
f 91/27/5 84/27/5 90/27/5
f 92/9/5 77/9/5 91/9/5
f 93/9/5 77/9/5 92/9/5
f 94/9/5 77/9/5 93/9/5
f 95/29/5 86/29/5 85/29/5
f 96/2/5 87/2/5 86/2/5
f 96/29/5 86/29/5 95/29/5
f 97/15/5 88/15/5 87/15/5
f 97/12/5 90/12/5 89/12/5
f 97/15/5 89/15/5 88/15/5
f 98/21/5 91/21/5 90/21/5
f 98/12/5 90/12/5 97/12/5
f 99/11/5 92/11/5 91/11/5
f 99/21/5 91/21/5 98/21/5
f 100/9/5 93/9/5 92/9/5
f 100/11/5 92/11/5 99/11/5
f 101/8/5 94/8/5 93/8/5
f 101/9/5 93/9/5 100/9/5
f 102/9/5 77/9/5 94/9/5
f 102/8/5 94/8/5 101/8/5
f 103/31/5 96/31/5 95/31/5
f 104/2/5 87/2/5 96/2/5
f 104/31/5 96/31/5 103/31/5
f 105/15/5 97/15/5 87/15/5
f 105/2/5 87/2/5 104/2/5
f 106/15/5 97/15/5 105/15/5
f 107/26/5 98/26/5 97/26/5
f 107/15/5 97/15/5 106/15/5
f 108/20/5 99/20/5 98/20/5
f 108/26/5 98/26/5 107/26/5
f 109/9/5 101/9/5 100/9/5
f 109/20/5 99/20/5 108/20/5
f 109/9/5 100/9/5 99/9/5
f 109/9/5 102/9/5 101/9/5
f 110/29/5 104/29/5 103/29/5
f 111/17/5 105/17/5 104/17/5
f 111/29/5 104/29/5 110/29/5
f 112/25/5 106/25/5 105/25/5
f 112/17/5 105/17/5 111/17/5
f 113/20/5 107/20/5 106/20/5
f 113/25/5 106/25/5 112/25/5
f 114/26/5 108/26/5 107/26/5
f 114/20/5 107/20/5 113/20/5
f 115/21/5 109/21/5 108/21/5
f 115/26/5 108/26/5 114/26/5
f 116/9/5 102/9/5 109/9/5
f 116/21/5 109/21/5 115/21/5
f 117/9/5 77/9/5 102/9/5
f 117/9/5 102/9/5 116/9/5
f 118/9/5 77/9/5 117/9/5
f 119/5/5 111/5/5 110/5/5
f 120/16/5 112/16/5 111/16/5
f 120/5/5 111/5/5 119/5/5
f 121/13/5 113/13/5 112/13/5
f 121/16/5 112/16/5 120/16/5
f 122/16/5 114/16/5 113/16/5
f 122/13/5 113/13/5 121/13/5
f 123/14/5 115/14/5 114/14/5
f 123/16/5 114/16/5 122/16/5
f 124/7/5 116/7/5 115/7/5
f 124/14/5 115/14/5 123/14/5
f 125/9/5 117/9/5 116/9/5
f 125/7/5 116/7/5 124/7/5
f 126/9/5 117/9/5 125/9/5
f 127/6/5 118/6/5 117/6/5
f 127/9/5 117/9/5 126/9/5
f 128/9/5 77/9/5 118/9/5
f 128/6/5 118/6/5 127/6/5
f 129/3/5 120/3/5 119/3/5
f 130/26/5 121/26/5 120/26/5
f 130/3/5 120/3/5 129/3/5
f 131/12/5 122/12/5 121/12/5
f 131/26/5 121/26/5 130/26/5
f 132/26/5 123/26/5 122/26/5
f 132/12/5 122/12/5 131/12/5
f 133/22/5 124/22/5 123/22/5
f 133/26/5 123/26/5 132/26/5
f 134/19/5 125/19/5 124/19/5
f 134/22/5 124/22/5 133/22/5
f 135/4/5 126/4/5 125/4/5
f 135/19/5 125/19/5 134/19/5
f 136/9/5 127/9/5 126/9/5
f 136/4/5 126/4/5 135/4/5
f 136/9/5 128/9/5 127/9/5
f 137/9/5 128/9/5 136/9/5
f 138/9/5 128/9/5 137/9/5
f 139/30/5 130/30/5 129/30/5
f 140/17/5 131/17/5 130/17/5
f 140/30/5 130/30/5 139/30/5
f 141/12/5 132/12/5 131/12/5
f 141/17/5 131/17/5 140/17/5
f 142/17/5 133/17/5 132/17/5
f 142/12/5 132/12/5 141/12/5
f 143/15/5 134/15/5 133/15/5
f 143/17/5 133/17/5 142/17/5
f 144/20/5 135/20/5 134/20/5
f 144/15/5 134/15/5 143/15/5
f 145/24/5 136/24/5 135/24/5
f 145/20/5 135/20/5 144/20/5
f 146/9/5 137/9/5 136/9/5
f 146/28/5 138/28/5 137/28/5
f 147/9/5 128/9/5 138/9/5
f 147/28/5 138/28/5 146/28/5
f 148/23/5 140/23/5 139/23/5
f 149/14/5 141/14/5 140/14/5
f 149/23/5 140/23/5 148/23/5
f 150/15/5 143/15/5 142/15/5
f 150/14/5 141/14/5 149/14/5
f 150/15/5 142/15/5 141/15/5
f 151/15/5 143/15/5 150/15/5
f 152/20/5 144/20/5 143/20/5
f 152/15/5 143/15/5 151/15/5
f 153/1/5 145/1/5 144/1/5
f 153/20/5 144/20/5 152/20/5
f 154/24/5 136/24/5 145/24/5
f 154/1/5 145/1/5 153/1/5
f 155/9/5 146/9/5 136/9/5
f 155/24/5 136/24/5 154/24/5
f 155/9/5 147/9/5 146/9/5
f 156/9/5 147/9/5 155/9/5
f 157/30/5 149/30/5 148/30/5
f 158/13/5 150/13/5 149/13/5
f 158/30/5 149/30/5 157/30/5
f 159/25/5 151/25/5 150/25/5
f 159/13/5 150/13/5 158/13/5
f 160/15/5 152/15/5 151/15/5
f 160/25/5 151/25/5 159/25/5
f 161/21/5 153/21/5 152/21/5
f 161/15/5 152/15/5 160/15/5
f 162/28/5 154/28/5 153/28/5
f 162/21/5 153/21/5 161/21/5
f 163/19/5 155/19/5 154/19/5
f 163/28/5 154/28/5 162/28/5
f 164/29/5 156/29/5 155/29/5
f 164/19/5 155/19/5 163/19/5
f 165/9/5 147/9/5 156/9/5
f 165/29/5 156/29/5 164/29/5
f 166/23/5 158/23/5 157/23/5
f 167/18/5 159/18/5 158/18/5
f 167/23/5 158/23/5 166/23/5
f 168/14/5 160/14/5 159/14/5
f 168/18/5 159/18/5 167/18/5
f 169/21/5 161/21/5 160/21/5
f 169/14/5 160/14/5 168/14/5
f 170/16/5 162/16/5 161/16/5
f 170/21/5 161/21/5 169/21/5
f 170/16/5 163/16/5 162/16/5
f 171/17/5 164/17/5 163/17/5
f 171/16/5 163/16/5 170/16/5
f 172/27/5 165/27/5 164/27/5
f 172/17/5 164/17/5 171/17/5
f 173/9/5 147/9/5 165/9/5
f 173/27/5 165/27/5 172/27/5
f 174/9/5 167/9/5 166/9/5
f 175/23/5 168/23/5 167/23/5
f 175/9/5 167/9/5 174/9/5
f 175/23/5 170/23/5 169/23/5
f 175/23/5 169/23/5 168/23/5
f 175/23/5 171/23/5 170/23/5
f 176/23/5 171/23/5 175/23/5
f 177/23/5 171/23/5 176/23/5
f 178/23/5 171/23/5 177/23/5
f 179/3/5 172/3/5 171/3/5
f 179/23/5 171/23/5 178/23/5
f 180/30/5 173/30/5 172/30/5
f 180/3/5 172/3/5 179/3/5
f 181/9/5 147/9/5 173/9/5
f 181/30/5 173/30/5 180/30/5
f 182/30/5 175/30/5 174/30/5
f 183/17/5 176/17/5 175/17/5
f 183/30/5 175/30/5 182/30/5
f 184/17/5 176/17/5 183/17/5
f 185/16/5 177/16/5 176/16/5
f 185/17/5 176/17/5 184/17/5
f 186/25/5 178/25/5 177/25/5
f 186/16/5 177/16/5 185/16/5
f 187/27/5 179/27/5 178/27/5
f 187/25/5 178/25/5 186/25/5
f 188/9/5 180/9/5 179/9/5
f 188/27/5 179/27/5 187/27/5
f 188/9/5 181/9/5 180/9/5
f 189/9/5 147/9/5 181/9/5
f 189/9/5 181/9/5 188/9/5
f 190/29/5 183/29/5 182/29/5
f 191/2/5 184/2/5 183/2/5
f 191/29/5 183/29/5 190/29/5
f 192/25/5 185/25/5 184/25/5
f 192/2/5 184/2/5 191/2/5
f 193/15/5 186/15/5 185/15/5
f 193/25/5 185/25/5 192/25/5
f 194/20/5 187/20/5 186/20/5
f 194/15/5 186/15/5 193/15/5
f 195/13/5 188/13/5 187/13/5
f 195/20/5 187/20/5 194/20/5
f 196/6/5 189/6/5 188/6/5
f 196/13/5 188/13/5 195/13/5
f 197/9/5 147/9/5 189/9/5
f 197/6/5 189/6/5 196/6/5
f 198/31/5 191/31/5 190/31/5
f 199/21/5 192/21/5 191/21/5
f 199/31/5 191/31/5 198/31/5
f 200/15/5 193/15/5 192/15/5
f 200/21/5 192/21/5 199/21/5
f 200/15/5 194/15/5 193/15/5
f 201/15/5 194/15/5 200/15/5
f 202/14/5 195/14/5 194/14/5
f 202/15/5 194/15/5 201/15/5
f 203/17/5 196/17/5 195/17/5
f 203/14/5 195/14/5 202/14/5
f 204/9/5 197/9/5 196/9/5
f 204/17/5 196/17/5 203/17/5
f 205/29/5 199/29/5 198/29/5
f 206/2/5 200/2/5 199/2/5
f 206/29/5 199/29/5 205/29/5
f 207/21/5 201/21/5 200/21/5
f 207/2/5 200/2/5 206/2/5
f 208/20/5 202/20/5 201/20/5
f 208/21/5 201/21/5 207/21/5
f 209/25/5 203/25/5 202/25/5
f 209/20/5 202/20/5 208/20/5
f 210/13/5 204/13/5 203/13/5
f 210/25/5 203/25/5 209/25/5
f 211/9/5 197/9/5 204/9/5
f 211/13/5 204/13/5 210/13/5
f 212/5/5 206/5/5 205/5/5
f 213/16/5 207/16/5 206/16/5
f 213/5/5 206/5/5 212/5/5
f 214/13/5 208/13/5 207/13/5
f 214/16/5 207/16/5 213/16/5
f 215/14/5 209/14/5 208/14/5
f 215/13/5 208/13/5 214/13/5
f 216/16/5 210/16/5 209/16/5
f 216/14/5 209/14/5 215/14/5
f 217/10/5 211/10/5 210/10/5
f 217/16/5 210/16/5 216/16/5
f 218/9/5 197/9/5 211/9/5
f 218/10/5 211/10/5 217/10/5
f 219/9/5 77/9/5 128/9/5
f 219/9/5 197/9/5 218/9/5
f 219/9/5 128/9/5 147/9/5
f 219/9/5 147/9/5 197/9/5
f 220/9/6 221/9/6 227/9/6
f 221/23/6 222/23/6 228/23/6
f 227/9/6 221/9/6 228/9/6
f 222/30/6 223/30/6 229/30/6
f 228/23/6 222/23/6 229/23/6
f 229/30/6 223/30/6 230/30/6
f 223/31/6 224/31/6 231/31/6
f 230/30/6 223/30/6 231/30/6
f 224/29/6 225/29/6 232/29/6
f 231/31/6 224/31/6 232/31/6
f 225/9/6 226/9/6 233/9/6
f 232/29/6 225/29/6 233/29/6
f 227/30/6 228/30/6 234/30/6
f 228/14/6 229/14/6 235/14/6
f 234/30/6 228/30/6 235/30/6
f 229/16/6 230/16/6 236/16/6
f 235/14/6 229/14/6 236/14/6
f 230/20/6 231/20/6 237/20/6
f 236/16/6 230/16/6 237/16/6
f 231/16/6 232/16/6 238/16/6
f 237/20/6 231/20/6 238/20/6
f 232/27/6 233/27/6 239/27/6
f 238/16/6 232/16/6 239/16/6
f 233/9/6 226/9/6 240/9/6
f 239/27/6 233/27/6 240/27/6
f 240/9/6 226/9/6 241/9/6
f 241/9/6 226/9/6 242/9/6
f 242/9/6 226/9/6 243/9/6
f 234/29/6 235/29/6 244/29/6
f 235/2/6 236/2/6 245/2/6
f 244/29/6 235/29/6 245/29/6
f 236/15/6 237/15/6 246/15/6
f 238/12/6 239/12/6 246/12/6
f 237/15/6 238/15/6 246/15/6
f 239/21/6 240/21/6 247/21/6
f 246/12/6 239/12/6 247/12/6
f 240/11/6 241/11/6 248/11/6
f 247/21/6 240/21/6 248/21/6
f 241/9/6 242/9/6 249/9/6
f 248/11/6 241/11/6 249/11/6
f 242/8/6 243/8/6 250/8/6
f 249/9/6 242/9/6 250/9/6
f 243/9/6 226/9/6 251/9/6
f 250/8/6 243/8/6 251/8/6
f 244/31/6 245/31/6 252/31/6
f 245/2/6 236/2/6 253/2/6
f 252/31/6 245/31/6 253/31/6
f 236/15/6 246/15/6 254/15/6
f 253/2/6 236/2/6 254/2/6
f 254/15/6 246/15/6 255/15/6
f 246/26/6 247/26/6 256/26/6
f 255/15/6 246/15/6 256/15/6
f 247/20/6 248/20/6 257/20/6
f 256/26/6 247/26/6 257/26/6
f 249/9/6 250/9/6 258/9/6
f 257/20/6 248/20/6 258/20/6
f 248/9/6 249/9/6 258/9/6
f 250/9/6 251/9/6 258/9/6
f 252/29/6 253/29/6 259/29/6
f 253/17/6 254/17/6 260/17/6
f 259/29/6 253/29/6 260/29/6
f 254/25/6 255/25/6 261/25/6
f 260/17/6 254/17/6 261/17/6
f 255/20/6 256/20/6 262/20/6
f 261/25/6 255/25/6 262/25/6
f 256/26/6 257/26/6 263/26/6
f 262/20/6 256/20/6 263/20/6
f 257/21/6 258/21/6 264/21/6
f 263/26/6 257/26/6 264/26/6
f 258/9/6 251/9/6 265/9/6
f 264/21/6 258/21/6 265/21/6
f 251/9/6 226/9/6 266/9/6
f 265/9/6 251/9/6 266/9/6
f 266/9/6 226/9/6 267/9/6
f 259/5/6 260/5/6 268/5/6
f 260/16/6 261/16/6 269/16/6
f 268/5/6 260/5/6 269/5/6
f 261/13/6 262/13/6 270/13/6
f 269/16/6 261/16/6 270/16/6
f 262/16/6 263/16/6 271/16/6
f 270/13/6 262/13/6 271/13/6
f 263/14/6 264/14/6 272/14/6
f 271/16/6 263/16/6 272/16/6
f 264/7/6 265/7/6 273/7/6
f 272/14/6 264/14/6 273/14/6
f 265/9/6 266/9/6 274/9/6
f 273/7/6 265/7/6 274/7/6
f 274/9/6 266/9/6 275/9/6
f 266/6/6 267/6/6 276/6/6
f 275/9/6 266/9/6 276/9/6
f 267/9/6 226/9/6 277/9/6
f 276/6/6 267/6/6 277/6/6
f 268/3/6 269/3/6 278/3/6
f 269/26/6 270/26/6 279/26/6
f 278/3/6 269/3/6 279/3/6
f 270/12/6 271/12/6 280/12/6
f 279/26/6 270/26/6 280/26/6
f 271/26/6 272/26/6 281/26/6
f 280/12/6 271/12/6 281/12/6
f 272/22/6 273/22/6 282/22/6
f 281/26/6 272/26/6 282/26/6
f 273/19/6 274/19/6 283/19/6
f 282/22/6 273/22/6 283/22/6
f 274/4/6 275/4/6 284/4/6
f 283/19/6 274/19/6 284/19/6
f 275/9/6 276/9/6 285/9/6
f 284/4/6 275/4/6 285/4/6
f 276/9/6 277/9/6 285/9/6
f 285/9/6 277/9/6 286/9/6
f 286/9/6 277/9/6 287/9/6
f 278/30/6 279/30/6 288/30/6
f 279/17/6 280/17/6 289/17/6
f 288/30/6 279/30/6 289/30/6
f 280/12/6 281/12/6 290/12/6
f 289/17/6 280/17/6 290/17/6
f 281/17/6 282/17/6 291/17/6
f 290/12/6 281/12/6 291/12/6
f 282/15/6 283/15/6 292/15/6
f 291/17/6 282/17/6 292/17/6
f 283/20/6 284/20/6 293/20/6
f 292/15/6 283/15/6 293/15/6
f 284/24/6 285/24/6 294/24/6
f 293/20/6 284/20/6 294/20/6
f 285/9/6 286/9/6 295/9/6
f 286/28/6 287/28/6 295/28/6
f 287/9/6 277/9/6 296/9/6
f 295/28/6 287/28/6 296/28/6
f 288/23/6 289/23/6 297/23/6
f 289/14/6 290/14/6 298/14/6
f 297/23/6 289/23/6 298/23/6
f 291/15/6 292/15/6 299/15/6
f 298/14/6 290/14/6 299/14/6
f 290/15/6 291/15/6 299/15/6
f 299/15/6 292/15/6 300/15/6
f 292/20/6 293/20/6 301/20/6
f 300/15/6 292/15/6 301/15/6
f 293/1/6 294/1/6 302/1/6
f 301/20/6 293/20/6 302/20/6
f 294/24/6 285/24/6 303/24/6
f 302/1/6 294/1/6 303/1/6
f 285/9/6 295/9/6 304/9/6
f 303/24/6 285/24/6 304/24/6
f 295/9/6 296/9/6 304/9/6
f 304/9/6 296/9/6 305/9/6
f 297/30/6 298/30/6 306/30/6
f 298/13/6 299/13/6 307/13/6
f 306/30/6 298/30/6 307/30/6
f 299/25/6 300/25/6 308/25/6
f 307/13/6 299/13/6 308/13/6
f 300/15/6 301/15/6 309/15/6
f 308/25/6 300/25/6 309/25/6
f 301/21/6 302/21/6 310/21/6
f 309/15/6 301/15/6 310/15/6
f 302/28/6 303/28/6 311/28/6
f 310/21/6 302/21/6 311/21/6
f 303/19/6 304/19/6 312/19/6
f 311/28/6 303/28/6 312/28/6
f 304/29/6 305/29/6 313/29/6
f 312/19/6 304/19/6 313/19/6
f 305/9/6 296/9/6 314/9/6
f 313/29/6 305/29/6 314/29/6
f 306/23/6 307/23/6 315/23/6
f 307/18/6 308/18/6 316/18/6
f 315/23/6 307/23/6 316/23/6
f 308/14/6 309/14/6 317/14/6
f 316/18/6 308/18/6 317/18/6
f 309/21/6 310/21/6 318/21/6
f 317/14/6 309/14/6 318/14/6
f 310/16/6 311/16/6 319/16/6
f 318/21/6 310/21/6 319/21/6
f 311/16/6 312/16/6 319/16/6
f 312/17/6 313/17/6 320/17/6
f 319/16/6 312/16/6 320/16/6
f 313/27/6 314/27/6 321/27/6
f 320/17/6 313/17/6 321/17/6
f 314/9/6 296/9/6 322/9/6
f 321/27/6 314/27/6 322/27/6
f 315/9/6 316/9/6 323/9/6
f 316/23/6 317/23/6 324/23/6
f 323/9/6 316/9/6 324/9/6
f 318/23/6 319/23/6 324/23/6
f 317/23/6 318/23/6 324/23/6
f 319/23/6 320/23/6 324/23/6
f 324/23/6 320/23/6 325/23/6
f 325/23/6 320/23/6 326/23/6
f 326/23/6 320/23/6 327/23/6
f 320/3/6 321/3/6 328/3/6
f 327/23/6 320/23/6 328/23/6
f 321/30/6 322/30/6 329/30/6
f 328/3/6 321/3/6 329/3/6
f 322/9/6 296/9/6 330/9/6
f 329/30/6 322/30/6 330/30/6
f 323/30/6 324/30/6 331/30/6
f 324/17/6 325/17/6 332/17/6
f 331/30/6 324/30/6 332/30/6
f 332/17/6 325/17/6 333/17/6
f 325/16/6 326/16/6 334/16/6
f 333/17/6 325/17/6 334/17/6
f 326/25/6 327/25/6 335/25/6
f 334/16/6 326/16/6 335/16/6
f 327/27/6 328/27/6 336/27/6
f 335/25/6 327/25/6 336/25/6
f 328/9/6 329/9/6 337/9/6
f 336/27/6 328/27/6 337/27/6
f 329/9/6 330/9/6 337/9/6
f 330/9/6 296/9/6 338/9/6
f 337/9/6 330/9/6 338/9/6
f 331/29/6 332/29/6 339/29/6
f 332/2/6 333/2/6 340/2/6
f 339/29/6 332/29/6 340/29/6
f 333/25/6 334/25/6 341/25/6
f 340/2/6 333/2/6 341/2/6
f 334/15/6 335/15/6 342/15/6
f 341/25/6 334/25/6 342/25/6
f 335/20/6 336/20/6 343/20/6
f 342/15/6 335/15/6 343/15/6
f 336/13/6 337/13/6 344/13/6
f 343/20/6 336/20/6 344/20/6
f 337/6/6 338/6/6 345/6/6
f 344/13/6 337/13/6 345/13/6
f 338/9/6 296/9/6 346/9/6
f 345/6/6 338/6/6 346/6/6
f 339/31/6 340/31/6 347/31/6
f 340/21/6 341/21/6 348/21/6
f 347/31/6 340/31/6 348/31/6
f 341/15/6 342/15/6 349/15/6
f 348/21/6 341/21/6 349/21/6
f 342/15/6 343/15/6 349/15/6
f 349/15/6 343/15/6 350/15/6
f 343/14/6 344/14/6 351/14/6
f 350/15/6 343/15/6 351/15/6
f 344/17/6 345/17/6 352/17/6
f 351/14/6 344/14/6 352/14/6
f 345/9/6 346/9/6 353/9/6
f 352/17/6 345/17/6 353/17/6
f 347/29/6 348/29/6 354/29/6
f 348/2/6 349/2/6 355/2/6
f 354/29/6 348/29/6 355/29/6
f 349/21/6 350/21/6 356/21/6
f 355/2/6 349/2/6 356/2/6
f 350/20/6 351/20/6 357/20/6
f 356/21/6 350/21/6 357/21/6
f 351/25/6 352/25/6 358/25/6
f 357/20/6 351/20/6 358/20/6
f 352/13/6 353/13/6 359/13/6
f 358/25/6 352/25/6 359/25/6
f 353/9/6 346/9/6 360/9/6
f 359/13/6 353/13/6 360/13/6
f 354/5/6 355/5/6 361/5/6
f 355/16/6 356/16/6 362/16/6
f 361/5/6 355/5/6 362/5/6
f 356/13/6 357/13/6 363/13/6
f 362/16/6 356/16/6 363/16/6
f 357/14/6 358/14/6 364/14/6
f 363/13/6 357/13/6 364/13/6
f 358/16/6 359/16/6 365/16/6
f 364/14/6 358/14/6 365/14/6
f 359/10/6 360/10/6 366/10/6
f 365/16/6 359/16/6 366/16/6
f 360/9/6 346/9/6 367/9/6
f 366/10/6 360/10/6 367/10/6
f 277/9/6 226/9/6 368/9/6
f 367/9/6 346/9/6 368/9/6
f 296/9/6 277/9/6 368/9/6
f 346/9/6 296/9/6 368/9/6
