# MagicaVoxel @ Ephtracy

# group
g onesideandoneuppercorner

# material
mtllib onesideandoneuppercorner.mtl
usemtl palette

# normals
vn -1 0 0
vn 1 0 0
vn 0 0 1
vn 0 0 -1
vn 0 -1 0
vn 0 1 0

# texcoords
vt 0.00585938 0.5
vt 0.197266 0.5
vt 0.275391 0.5
vt 0.298828 0.5
vt 0.302734 0.5
vt 0.310547 0.5
vt 0.314453 0.5
vt 0.349609 0.5
vt 0.353516 0.5
vt 0.357422 0.5
vt 0.365234 0.5
vt 0.369141 0.5
vt 0.373047 0.5
vt 0.400391 0.5
vt 0.416016 0.5
vt 0.423828 0.5
vt 0.439453 0.5
vt 0.458984 0.5
vt 0.474609 0.5
vt 0.517578 0.5
vt 0.548828 0.5
vt 0.595703 0.5
vt 0.626953 0.5
vt 0.751953 0.5
vt 0.939453 0.5
vt 0.955078 0.5
vt 0.970703 0.5

# verts
v -8 0 8.5
v -8 0 7.5
v -8 0 6.5
v -8 0 5.5
v -8 0 4.5
v -8 0 3.5
v -8 0 2.5
v -8 0 1.5
v -8 0 -1.5
v -8 0 -2.5
v -8 0 -3.5
v -8 0 -4.5
v -8 0 -5.5
v -8 0 -6.5
v -8 0 -7.5
v -8 0 -8.5
v -8 1 8.5
v -8 1 7.5
v -8 1 6.5
v -8 1 5.5
v -8 1 4.5
v -8 1 3.5
v -8 1 2.5
v -8 1 1.5
v -8 1 -1.5
v -8 1 -2.5
v -8 1 -3.5
v -8 1 -4.5
v -8 1 -5.5
v -8 1 -6.5
v -8 1 -7.5
v -8 1 -8.5
v 8 0 8.5
v 8 0 -4.5
v 8 0 -5.5
v 8 0 -6.5
v 8 0 -7.5
v 8 0 -8.5
v 8 1 8.5
v 8 1 -4.5
v 8 1 -5.5
v 8 1 -6.5
v 8 1 -7.5
v 8 1 -8.5
v -8 0 8.5
v -8 1 8.5
v -7 0 8.5
v -7 1 8.5
v -6 0 8.5
v -6 1 8.5
v -5 0 8.5
v -5 1 8.5
v -4 0 8.5
v -4 1 8.5
v -3 0 8.5
v -3 1 8.5
v 8 0 8.5
v 8 1 8.5
v -8 0 -8.5
v -8 1 -8.5
v -7 0 -8.5
v -7 1 -8.5
v -6 0 -8.5
v -6 1 -8.5
v -5 0 -8.5
v -5 1 -8.5
v -4 0 -8.5
v -4 1 -8.5
v -3 0 -8.5
v -3 1 -8.5
v 3 0 -8.5
v 3 1 -8.5
v 4 0 -8.5
v 4 1 -8.5
v 5 0 -8.5
v 5 1 -8.5
v 6 0 -8.5
v 6 1 -8.5
v 7 0 -8.5
v 7 1 -8.5
v 8 0 -8.5
v 8 1 -8.5
v -8 0 8.5
v -7 0 8.5
v -6 0 8.5
v -5 0 8.5
v -4 0 8.5
v -3 0 8.5
v 8 0 8.5
v -8 0 7.5
v -7 0 7.5
v -6 0 7.5
v -5 0 7.5
v -4 0 7.5
v -3 0 7.5
v -8 0 6.5
v -7 0 6.5
v -6 0 6.5
v -5 0 6.5
v -4 0 6.5
v -3 0 6.5
v -2 0 6.5
v 0 0 6.5
v 1 0 6.5
v -8 0 5.5
v -7 0 5.5
v -5 0 5.5
v -4 0 5.5
v -3 0 5.5
v -2 0 5.5
v 0 0 5.5
v 1 0 5.5
v -8 0 4.5
v -7 0 4.5
v -6 0 4.5
v -5 0 4.5
v -4 0 4.5
v -3 0 4.5
v -8 0 3.5
v -7 0 3.5
v -6 0 3.5
v -5 0 3.5
v -4 0 3.5
v -3 0 3.5
v 5 0 3.5
v 6 0 3.5
v 7 0 3.5
v -8 0 2.5
v -7 0 2.5
v -6 0 2.5
v -4 0 2.5
v -3 0 2.5
v 5 0 2.5
v 6 0 2.5
v 7 0 2.5
v -8 0 1.5
v -7 0 1.5
v -6 0 1.5
v -5 0 1.5
v -4 0 1.5
v 1 0 1.5
v 2 0 1.5
v -7 0 0.5
v -6 0 0.5
v -5 0 0.5
v -4 0 0.5
v 1 0 0.5
v 2 0 0.5
v -5 0 -0.5
v -4 0 -0.5
v -8 0 -1.5
v -7 0 -1.5
v -5 0 -1.5
v -3 0 -1.5
v -2 0 -1.5
v -8 0 -2.5
v -6 0 -2.5
v -5 0 -2.5
v -4 0 -2.5
v -3 0 -2.5
v -2 0 -2.5
v -8 0 -3.5
v -7 0 -3.5
v -6 0 -3.5
v -5 0 -3.5
v -4 0 -3.5
v -3 0 -3.5
v -8 0 -4.5
v -7 0 -4.5
v -6 0 -4.5
v -5 0 -4.5
v -4 0 -4.5
v -3 0 -4.5
v -1 0 -4.5
v 4 0 -4.5
v 5 0 -4.5
v 6 0 -4.5
v 7 0 -4.5
v 8 0 -4.5
v -8 0 -5.5
v -7 0 -5.5
v -5 0 -5.5
v -4 0 -5.5
v -3 0 -5.5
v -1 0 -5.5
v 4 0 -5.5
v 5 0 -5.5
v 6 0 -5.5
v 7 0 -5.5
v 8 0 -5.5
v -8 0 -6.5
v -7 0 -6.5
v -6 0 -6.5
v -5 0 -6.5
v -4 0 -6.5
v -3 0 -6.5
v 5 0 -6.5
v 6 0 -6.5
v 7 0 -6.5
v 8 0 -6.5
v -8 0 -7.5
v -7 0 -7.5
v -6 0 -7.5
v -5 0 -7.5
v -4 0 -7.5
v -3 0 -7.5
v 3 0 -7.5
v 4 0 -7.5
v 5 0 -7.5
v 6 0 -7.5
v 7 0 -7.5
v 8 0 -7.5
v -8 0 -8.5
v -7 0 -8.5
v -6 0 -8.5
v -5 0 -8.5
v -4 0 -8.5
v -3 0 -8.5
v 3 0 -8.5
v 4 0 -8.5
v 5 0 -8.5
v 6 0 -8.5
v 7 0 -8.5
v 8 0 -8.5
v -8 1 8.5
v -7 1 8.5
v -6 1 8.5
v -5 1 8.5
v -4 1 8.5
v -3 1 8.5
v 8 1 8.5
v -8 1 7.5
v -7 1 7.5
v -6 1 7.5
v -5 1 7.5
v -4 1 7.5
v -3 1 7.5
v -8 1 6.5
v -7 1 6.5
v -6 1 6.5
v -5 1 6.5
v -4 1 6.5
v -3 1 6.5
v -2 1 6.5
v 0 1 6.5
v 1 1 6.5
v -8 1 5.5
v -7 1 5.5
v -5 1 5.5
v -4 1 5.5
v -3 1 5.5
v -2 1 5.5
v 0 1 5.5
v 1 1 5.5
v -8 1 4.5
v -7 1 4.5
v -6 1 4.5
v -5 1 4.5
v -4 1 4.5
v -3 1 4.5
v -8 1 3.5
v -7 1 3.5
v -6 1 3.5
v -5 1 3.5
v -4 1 3.5
v -3 1 3.5
v 5 1 3.5
v 6 1 3.5
v 7 1 3.5
v -8 1 2.5
v -7 1 2.5
v -6 1 2.5
v -4 1 2.5
v -3 1 2.5
v 5 1 2.5
v 6 1 2.5
v 7 1 2.5
v -8 1 1.5
v -7 1 1.5
v -6 1 1.5
v -5 1 1.5
v -4 1 1.5
v 1 1 1.5
v 2 1 1.5
v -7 1 0.5
v -6 1 0.5
v -5 1 0.5
v -4 1 0.5
v 1 1 0.5
v 2 1 0.5
v -5 1 -0.5
v -4 1 -0.5
v -8 1 -1.5
v -7 1 -1.5
v -5 1 -1.5
v -3 1 -1.5
v -2 1 -1.5
v -8 1 -2.5
v -6 1 -2.5
v -5 1 -2.5
v -4 1 -2.5
v -3 1 -2.5
v -2 1 -2.5
v -8 1 -3.5
v -7 1 -3.5
v -6 1 -3.5
v -5 1 -3.5
v -4 1 -3.5
v -3 1 -3.5
v -8 1 -4.5
v -7 1 -4.5
v -6 1 -4.5
v -5 1 -4.5
v -4 1 -4.5
v -3 1 -4.5
v -1 1 -4.5
v 4 1 -4.5
v 5 1 -4.5
v 6 1 -4.5
v 7 1 -4.5
v 8 1 -4.5
v -8 1 -5.5
v -7 1 -5.5
v -5 1 -5.5
v -4 1 -5.5
v -3 1 -5.5
v -1 1 -5.5
v 4 1 -5.5
v 5 1 -5.5
v 6 1 -5.5
v 7 1 -5.5
v 8 1 -5.5
v -8 1 -6.5
v -7 1 -6.5
v -6 1 -6.5
v -5 1 -6.5
v -4 1 -6.5
v -3 1 -6.5
v 5 1 -6.5
v 6 1 -6.5
v 7 1 -6.5
v 8 1 -6.5
v -8 1 -7.5
v -7 1 -7.5
v -6 1 -7.5
v -5 1 -7.5
v -4 1 -7.5
v -3 1 -7.5
v 3 1 -7.5
v 4 1 -7.5
v 5 1 -7.5
v 6 1 -7.5
v 7 1 -7.5
v 8 1 -7.5
v -8 1 -8.5
v -7 1 -8.5
v -6 1 -8.5
v -5 1 -8.5
v -4 1 -8.5
v -3 1 -8.5
v 3 1 -8.5
v 4 1 -8.5
v 5 1 -8.5
v 6 1 -8.5
v 7 1 -8.5
v 8 1 -8.5

# faces
f 17/18/1 2/18/1 1/18/1
f 18/12/1 3/12/1 2/12/1
f 18/18/1 2/18/1 17/18/1
f 19/14/1 4/14/1 3/14/1
f 19/12/1 3/12/1 18/12/1
f 20/12/1 5/12/1 4/12/1
f 20/14/1 4/14/1 19/14/1
f 21/14/1 6/14/1 5/14/1
f 21/12/1 5/12/1 20/12/1
f 22/17/1 7/17/1 6/17/1
f 22/14/1 6/14/1 21/14/1
f 23/2/1 8/2/1 7/2/1
f 23/17/1 7/17/1 22/17/1
f 24/1/1 9/1/1 8/1/1
f 24/2/1 8/2/1 23/2/1
f 25/14/1 10/14/1 9/14/1
f 25/1/1 9/1/1 24/1/1
f 26/26/1 11/26/1 10/26/1
f 26/14/1 10/14/1 25/14/1
f 27/12/1 12/12/1 11/12/1
f 27/26/1 11/26/1 26/26/1
f 28/14/1 13/14/1 12/14/1
f 28/12/1 12/12/1 27/12/1
f 29/1/1 14/1/1 13/1/1
f 29/14/1 13/14/1 28/14/1
f 30/14/1 15/14/1 14/14/1
f 30/1/1 14/1/1 29/1/1
f 31/17/1 16/17/1 15/17/1
f 31/14/1 15/14/1 30/14/1
f 32/17/1 16/17/1 31/17/1
f 33/5/2 34/5/2 39/5/2
f 34/21/2 35/21/2 40/21/2
f 39/5/2 34/5/2 40/5/2
f 35/9/2 36/9/2 41/9/2
f 40/21/2 35/21/2 41/21/2
f 36/19/2 37/19/2 42/19/2
f 41/9/2 36/9/2 42/9/2
f 37/15/2 38/15/2 43/15/2
f 42/19/2 37/19/2 43/19/2
f 43/15/2 38/15/2 44/15/2
f 47/18/3 46/18/3 45/18/3
f 48/18/3 46/18/3 47/18/3
f 49/27/3 48/27/3 47/27/3
f 50/27/3 48/27/3 49/27/3
f 51/26/3 50/26/3 49/26/3
f 52/26/3 50/26/3 51/26/3
f 53/27/3 52/27/3 51/27/3
f 54/27/3 52/27/3 53/27/3
f 55/25/3 54/25/3 53/25/3
f 56/25/3 54/25/3 55/25/3
f 57/5/3 56/5/3 55/5/3
f 58/5/3 56/5/3 57/5/3
f 59/17/4 60/17/4 61/17/4
f 61/17/4 60/17/4 62/17/4
f 61/9/4 62/9/4 63/9/4
f 63/9/4 62/9/4 64/9/4
f 63/13/4 64/13/4 65/13/4
f 65/13/4 64/13/4 66/13/4
f 65/9/4 66/9/4 67/9/4
f 67/9/4 66/9/4 68/9/4
f 67/6/4 68/6/4 69/6/4
f 69/6/4 68/6/4 70/6/4
f 69/5/4 70/5/4 71/5/4
f 71/5/4 70/5/4 72/5/4
f 71/24/4 72/24/4 73/24/4
f 73/24/4 72/24/4 74/24/4
f 73/16/4 74/16/4 75/16/4
f 75/16/4 74/16/4 76/16/4
f 75/12/4 76/12/4 77/12/4
f 77/12/4 76/12/4 78/12/4
f 77/9/4 78/9/4 79/9/4
f 79/9/4 78/9/4 80/9/4
f 79/15/4 80/15/4 81/15/4
f 81/15/4 80/15/4 82/15/4
f 90/18/5 84/18/5 83/18/5
f 91/27/5 85/27/5 84/27/5
f 91/18/5 84/18/5 90/18/5
f 92/26/5 86/26/5 85/26/5
f 92/27/5 85/27/5 91/27/5
f 93/27/5 87/27/5 86/27/5
f 93/26/5 86/26/5 92/26/5
f 94/25/5 88/25/5 87/25/5
f 94/27/5 87/27/5 93/27/5
f 95/5/5 89/5/5 88/5/5
f 95/25/5 88/25/5 94/25/5
f 96/12/5 91/12/5 90/12/5
f 97/11/5 92/11/5 91/11/5
f 97/12/5 91/12/5 96/12/5
f 98/16/5 93/16/5 92/16/5
f 98/11/5 92/11/5 97/11/5
f 99/12/5 94/12/5 93/12/5
f 99/16/5 93/16/5 98/16/5
f 100/23/5 95/23/5 94/23/5
f 100/12/5 94/12/5 99/12/5
f 101/5/5 89/5/5 95/5/5
f 101/23/5 95/23/5 100/23/5
f 102/5/5 89/5/5 101/5/5
f 103/5/5 89/5/5 102/5/5
f 104/5/5 89/5/5 103/5/5
f 105/14/5 97/14/5 96/14/5
f 106/11/5 98/11/5 97/11/5
f 106/14/5 97/14/5 105/14/5
f 106/11/5 99/11/5 98/11/5
f 107/10/5 100/10/5 99/10/5
f 107/11/5 99/11/5 106/11/5
f 108/19/5 101/19/5 100/19/5
f 108/10/5 100/10/5 107/10/5
f 109/7/5 102/7/5 101/7/5
f 109/19/5 101/19/5 108/19/5
f 110/5/5 103/5/5 102/5/5
f 110/7/5 102/7/5 109/7/5
f 111/4/5 104/4/5 103/4/5
f 111/5/5 103/5/5 110/5/5
f 112/5/5 89/5/5 104/5/5
f 112/4/5 104/4/5 111/4/5
f 113/12/5 106/12/5 105/12/5
f 114/11/5 107/11/5 106/11/5
f 114/12/5 106/12/5 113/12/5
f 115/11/5 107/11/5 114/11/5
f 116/8/5 108/8/5 107/8/5
f 116/11/5 107/11/5 115/11/5
f 117/17/5 109/17/5 108/17/5
f 117/8/5 108/8/5 116/8/5
f 118/5/5 111/5/5 110/5/5
f 118/17/5 109/17/5 117/17/5
f 118/5/5 110/5/5 109/5/5
f 118/5/5 112/5/5 111/5/5
f 119/14/5 114/14/5 113/14/5
f 120/21/5 115/21/5 114/21/5
f 120/14/5 114/14/5 119/14/5
f 121/16/5 116/16/5 115/16/5
f 121/21/5 115/21/5 120/21/5
f 122/19/5 117/19/5 116/19/5
f 122/16/5 116/16/5 121/16/5
f 122/19/5 118/19/5 117/19/5
f 123/19/5 118/19/5 122/19/5
f 124/5/5 112/5/5 118/5/5
f 124/19/5 118/19/5 123/19/5
f 125/5/5 89/5/5 112/5/5
f 125/5/5 112/5/5 124/5/5
f 126/5/5 89/5/5 125/5/5
f 127/5/5 89/5/5 126/5/5
f 128/17/5 120/17/5 119/17/5
f 129/12/5 121/12/5 120/12/5
f 129/17/5 120/17/5 128/17/5
f 129/12/5 123/12/5 122/12/5
f 129/12/5 122/12/5 121/12/5
f 130/12/5 123/12/5 129/12/5
f 131/6/5 124/6/5 123/6/5
f 131/12/5 123/12/5 130/12/5
f 132/5/5 125/5/5 124/5/5
f 132/6/5 124/6/5 131/6/5
f 133/3/5 126/3/5 125/3/5
f 133/5/5 125/5/5 132/5/5
f 134/7/5 127/7/5 126/7/5
f 134/3/5 126/3/5 133/3/5
f 135/5/5 89/5/5 127/5/5
f 135/7/5 127/7/5 134/7/5
f 136/2/5 129/2/5 128/2/5
f 137/27/5 130/27/5 129/27/5
f 137/2/5 129/2/5 136/2/5
f 138/25/5 131/25/5 130/25/5
f 138/27/5 130/27/5 137/27/5
f 139/25/5 131/25/5 138/25/5
f 140/5/5 133/5/5 132/5/5
f 140/25/5 131/25/5 139/25/5
f 140/5/5 134/5/5 133/5/5
f 140/5/5 132/5/5 131/5/5
f 140/5/5 135/5/5 134/5/5
f 141/5/5 135/5/5 140/5/5
f 142/5/5 135/5/5 141/5/5
f 143/10/5 138/10/5 137/10/5
f 143/1/5 137/1/5 136/1/5
f 144/12/5 139/12/5 138/12/5
f 144/10/5 138/10/5 143/10/5
f 145/20/5 140/20/5 139/20/5
f 145/12/5 139/12/5 144/12/5
f 146/5/5 141/5/5 140/5/5
f 146/20/5 140/20/5 145/20/5
f 147/3/5 142/3/5 141/3/5
f 147/5/5 141/5/5 146/5/5
f 148/5/5 135/5/5 142/5/5
f 148/3/5 142/3/5 147/3/5
f 149/19/5 146/19/5 145/19/5
f 149/11/5 144/11/5 143/11/5
f 149/11/5 145/11/5 144/11/5
f 150/5/5 147/5/5 146/5/5
f 150/19/5 146/19/5 149/19/5
f 150/5/5 148/5/5 147/5/5
f 151/1/5 143/1/5 136/1/5
f 152/11/5 149/11/5 143/11/5
f 152/1/5 143/1/5 151/1/5
f 153/12/5 150/12/5 149/12/5
f 153/11/5 149/11/5 152/11/5
f 154/5/5 148/5/5 150/5/5
f 155/5/5 148/5/5 154/5/5
f 156/14/5 152/14/5 151/14/5
f 156/14/5 153/14/5 152/14/5
f 157/14/5 153/14/5 156/14/5
f 158/12/5 150/12/5 153/12/5
f 158/14/5 153/14/5 157/14/5
f 159/5/5 154/5/5 150/5/5
f 159/12/5 150/12/5 158/12/5
f 160/24/5 155/24/5 154/24/5
f 160/5/5 154/5/5 159/5/5
f 161/5/5 148/5/5 155/5/5
f 161/24/5 155/24/5 160/24/5
f 162/26/5 157/26/5 156/26/5
f 163/26/5 157/26/5 162/26/5
f 164/27/5 158/27/5 157/27/5
f 164/26/5 157/26/5 163/26/5
f 165/26/5 159/26/5 158/26/5
f 165/27/5 158/27/5 164/27/5
f 166/25/5 160/25/5 159/25/5
f 166/26/5 159/26/5 165/26/5
f 167/5/5 161/5/5 160/5/5
f 167/25/5 160/25/5 166/25/5
f 168/12/5 163/12/5 162/12/5
f 169/20/5 164/20/5 163/20/5
f 169/12/5 163/12/5 168/12/5
f 170/10/5 165/10/5 164/10/5
f 170/20/5 164/20/5 169/20/5
f 170/10/5 166/10/5 165/10/5
f 171/10/5 166/10/5 170/10/5
f 172/22/5 167/22/5 166/22/5
f 172/10/5 166/10/5 171/10/5
f 173/5/5 161/5/5 167/5/5
f 173/22/5 167/22/5 172/22/5
f 174/5/5 148/5/5 161/5/5
f 174/5/5 161/5/5 173/5/5
f 175/5/5 135/5/5 148/5/5
f 175/5/5 148/5/5 174/5/5
f 176/5/5 135/5/5 175/5/5
f 177/5/5 135/5/5 176/5/5
f 178/5/5 89/5/5 135/5/5
f 178/5/5 135/5/5 177/5/5
f 179/5/5 89/5/5 178/5/5
f 180/14/5 169/14/5 168/14/5
f 181/11/5 171/11/5 170/11/5
f 181/14/5 169/14/5 180/14/5
f 181/11/5 170/11/5 169/11/5
f 182/17/5 172/17/5 171/17/5
f 182/11/5 171/11/5 181/11/5
f 183/9/5 173/9/5 172/9/5
f 183/17/5 172/17/5 182/17/5
f 184/3/5 174/3/5 173/3/5
f 184/9/5 173/9/5 183/9/5
f 185/5/5 175/5/5 174/5/5
f 185/3/5 174/3/5 184/3/5
f 186/12/5 176/12/5 175/12/5
f 186/5/5 175/5/5 185/5/5
f 187/13/5 177/13/5 176/13/5
f 187/12/5 176/12/5 186/12/5
f 188/17/5 178/17/5 177/17/5
f 188/13/5 177/13/5 187/13/5
f 189/21/5 179/21/5 178/21/5
f 189/17/5 178/17/5 188/17/5
f 190/21/5 179/21/5 189/21/5
f 191/1/5 181/1/5 180/1/5
f 192/11/5 182/11/5 181/11/5
f 192/1/5 181/1/5 191/1/5
f 193/11/5 182/11/5 192/11/5
f 194/19/5 183/19/5 182/19/5
f 194/11/5 182/11/5 193/11/5
f 195/9/5 184/9/5 183/9/5
f 195/19/5 183/19/5 194/19/5
f 196/5/5 186/5/5 185/5/5
f 196/9/5 184/9/5 195/9/5
f 196/5/5 185/5/5 184/5/5
f 197/15/5 188/15/5 187/15/5
f 197/1/5 187/1/5 186/1/5
f 197/15/5 189/15/5 188/15/5
f 198/15/5 189/15/5 197/15/5
f 199/9/5 190/9/5 189/9/5
f 199/15/5 189/15/5 198/15/5
f 200/9/5 190/9/5 199/9/5
f 201/14/5 192/14/5 191/14/5
f 202/21/5 193/21/5 192/21/5
f 202/14/5 192/14/5 201/14/5
f 203/16/5 194/16/5 193/16/5
f 203/21/5 193/21/5 202/21/5
f 204/8/5 195/8/5 194/8/5
f 204/16/5 194/16/5 203/16/5
f 205/10/5 196/10/5 195/10/5
f 205/8/5 195/8/5 204/8/5
f 206/5/5 186/5/5 196/5/5
f 206/10/5 196/10/5 205/10/5
f 207/5/5 186/5/5 206/5/5
f 208/1/5 197/1/5 186/1/5
f 208/5/5 186/5/5 207/5/5
f 209/6/5 198/6/5 197/6/5
f 209/1/5 197/1/5 208/1/5
f 210/22/5 199/22/5 198/22/5
f 210/6/5 198/6/5 209/6/5
f 211/19/5 200/19/5 199/19/5
f 211/22/5 199/22/5 210/22/5
f 212/19/5 200/19/5 211/19/5
f 213/17/5 202/17/5 201/17/5
f 214/9/5 203/9/5 202/9/5
f 214/17/5 202/17/5 213/17/5
f 215/13/5 204/13/5 203/13/5
f 215/9/5 203/9/5 214/9/5
f 216/9/5 205/9/5 204/9/5
f 216/13/5 204/13/5 215/13/5
f 217/6/5 206/6/5 205/6/5
f 217/9/5 205/9/5 216/9/5
f 218/5/5 207/5/5 206/5/5
f 218/6/5 206/6/5 217/6/5
f 219/24/5 208/24/5 207/24/5
f 219/5/5 207/5/5 218/5/5
f 220/16/5 209/16/5 208/16/5
f 220/24/5 208/24/5 219/24/5
f 221/12/5 210/12/5 209/12/5
f 221/16/5 209/16/5 220/16/5
f 222/9/5 211/9/5 210/9/5
f 222/12/5 210/12/5 221/12/5
f 223/15/5 212/15/5 211/15/5
f 223/9/5 211/9/5 222/9/5
f 224/15/5 212/15/5 223/15/5
f 225/18/6 226/18/6 232/18/6
f 226/27/6 227/27/6 233/27/6
f 232/18/6 226/18/6 233/18/6
f 227/26/6 228/26/6 234/26/6
f 233/27/6 227/27/6 234/27/6
f 228/27/6 229/27/6 235/27/6
f 234/26/6 228/26/6 235/26/6
f 229/25/6 230/25/6 236/25/6
f 235/27/6 229/27/6 236/27/6
f 230/5/6 231/5/6 237/5/6
f 236/25/6 230/25/6 237/25/6
f 232/12/6 233/12/6 238/12/6
f 233/11/6 234/11/6 239/11/6
f 238/12/6 233/12/6 239/12/6
f 234/16/6 235/16/6 240/16/6
f 239/11/6 234/11/6 240/11/6
f 235/12/6 236/12/6 241/12/6
f 240/16/6 235/16/6 241/16/6
f 236/23/6 237/23/6 242/23/6
f 241/12/6 236/12/6 242/12/6
f 237/5/6 231/5/6 243/5/6
f 242/23/6 237/23/6 243/23/6
f 243/5/6 231/5/6 244/5/6
f 244/5/6 231/5/6 245/5/6
f 245/5/6 231/5/6 246/5/6
f 238/14/6 239/14/6 247/14/6
f 239/11/6 240/11/6 248/11/6
f 247/14/6 239/14/6 248/14/6
f 240/11/6 241/11/6 248/11/6
f 241/10/6 242/10/6 249/10/6
f 248/11/6 241/11/6 249/11/6
f 242/19/6 243/19/6 250/19/6
f 249/10/6 242/10/6 250/10/6
f 243/7/6 244/7/6 251/7/6
f 250/19/6 243/19/6 251/19/6
f 244/5/6 245/5/6 252/5/6
f 251/7/6 244/7/6 252/7/6
f 245/4/6 246/4/6 253/4/6
f 252/5/6 245/5/6 253/5/6
f 246/5/6 231/5/6 254/5/6
f 253/4/6 246/4/6 254/4/6
f 247/12/6 248/12/6 255/12/6
f 248/11/6 249/11/6 256/11/6
f 255/12/6 248/12/6 256/12/6
f 256/11/6 249/11/6 257/11/6
f 249/8/6 250/8/6 258/8/6
f 257/11/6 249/11/6 258/11/6
f 250/17/6 251/17/6 259/17/6
f 258/8/6 250/8/6 259/8/6
f 252/5/6 253/5/6 260/5/6
f 259/17/6 251/17/6 260/17/6
f 251/5/6 252/5/6 260/5/6
f 253/5/6 254/5/6 260/5/6
f 255/14/6 256/14/6 261/14/6
f 256/21/6 257/21/6 262/21/6
f 261/14/6 256/14/6 262/14/6
f 257/16/6 258/16/6 263/16/6
f 262/21/6 257/21/6 263/21/6
f 258/19/6 259/19/6 264/19/6
f 263/16/6 258/16/6 264/16/6
f 259/19/6 260/19/6 264/19/6
f 264/19/6 260/19/6 265/19/6
f 260/5/6 254/5/6 266/5/6
f 265/19/6 260/19/6 266/19/6
f 254/5/6 231/5/6 267/5/6
f 266/5/6 254/5/6 267/5/6
f 267/5/6 231/5/6 268/5/6
f 268/5/6 231/5/6 269/5/6
f 261/17/6 262/17/6 270/17/6
f 262/12/6 263/12/6 271/12/6
f 270/17/6 262/17/6 271/17/6
f 264/12/6 265/12/6 271/12/6
f 263/12/6 264/12/6 271/12/6
f 271/12/6 265/12/6 272/12/6
f 265/6/6 266/6/6 273/6/6
f 272/12/6 265/12/6 273/12/6
f 266/5/6 267/5/6 274/5/6
f 273/6/6 266/6/6 274/6/6
f 267/3/6 268/3/6 275/3/6
f 274/5/6 267/5/6 275/5/6
f 268/7/6 269/7/6 276/7/6
f 275/3/6 268/3/6 276/3/6
f 269/5/6 231/5/6 277/5/6
f 276/7/6 269/7/6 277/7/6
f 270/2/6 271/2/6 278/2/6
f 271/27/6 272/27/6 279/27/6
f 278/2/6 271/2/6 279/2/6
f 272/25/6 273/25/6 280/25/6
f 279/27/6 272/27/6 280/27/6
f 280/25/6 273/25/6 281/25/6
f 274/5/6 275/5/6 282/5/6
f 281/25/6 273/25/6 282/25/6
f 275/5/6 276/5/6 282/5/6
f 273/5/6 274/5/6 282/5/6
f 276/5/6 277/5/6 282/5/6
f 282/5/6 277/5/6 283/5/6
f 283/5/6 277/5/6 284/5/6
f 279/10/6 280/10/6 285/10/6
f 278/1/6 279/1/6 285/1/6
f 280/12/6 281/12/6 286/12/6
f 285/10/6 280/10/6 286/10/6
f 281/20/6 282/20/6 287/20/6
f 286/12/6 281/12/6 287/12/6
f 282/5/6 283/5/6 288/5/6
f 287/20/6 282/20/6 288/20/6
f 283/3/6 284/3/6 289/3/6
f 288/5/6 283/5/6 289/5/6
f 284/5/6 277/5/6 290/5/6
f 289/3/6 284/3/6 290/3/6
f 287/19/6 288/19/6 291/19/6
f 285/11/6 286/11/6 291/11/6
f 286/11/6 287/11/6 291/11/6
f 288/5/6 289/5/6 292/5/6
f 291/19/6 288/19/6 292/19/6
f 289/5/6 290/5/6 292/5/6
f 278/1/6 285/1/6 293/1/6
f 285/11/6 291/11/6 294/11/6
f 293/1/6 285/1/6 294/1/6
f 291/12/6 292/12/6 295/12/6
f 294/11/6 291/11/6 295/11/6
f 292/5/6 290/5/6 296/5/6
f 296/5/6 290/5/6 297/5/6
f 293/14/6 294/14/6 298/14/6
f 294/14/6 295/14/6 298/14/6
f 298/14/6 295/14/6 299/14/6
f 295/12/6 292/12/6 300/12/6
f 299/14/6 295/14/6 300/14/6
f 292/5/6 296/5/6 301/5/6
f 300/12/6 292/12/6 301/12/6
f 296/24/6 297/24/6 302/24/6
f 301/5/6 296/5/6 302/5/6
f 297/5/6 290/5/6 303/5/6
f 302/24/6 297/24/6 303/24/6
f 298/26/6 299/26/6 304/26/6
f 304/26/6 299/26/6 305/26/6
f 299/27/6 300/27/6 306/27/6
f 305/26/6 299/26/6 306/26/6
f 300/26/6 301/26/6 307/26/6
f 306/27/6 300/27/6 307/27/6
f 301/25/6 302/25/6 308/25/6
f 307/26/6 301/26/6 308/26/6
f 302/5/6 303/5/6 309/5/6
f 308/25/6 302/25/6 309/25/6
f 304/12/6 305/12/6 310/12/6
f 305/20/6 306/20/6 311/20/6
f 310/12/6 305/12/6 311/12/6
f 306/10/6 307/10/6 312/10/6
f 311/20/6 306/20/6 312/20/6
f 307/10/6 308/10/6 312/10/6
f 312/10/6 308/10/6 313/10/6
f 308/22/6 309/22/6 314/22/6
f 313/10/6 308/10/6 314/10/6
f 309/5/6 303/5/6 315/5/6
f 314/22/6 309/22/6 315/22/6
f 303/5/6 290/5/6 316/5/6
f 315/5/6 303/5/6 316/5/6
f 290/5/6 277/5/6 317/5/6
f 316/5/6 290/5/6 317/5/6
f 317/5/6 277/5/6 318/5/6
f 318/5/6 277/5/6 319/5/6
f 277/5/6 231/5/6 320/5/6
f 319/5/6 277/5/6 320/5/6
f 320/5/6 231/5/6 321/5/6
f 310/14/6 311/14/6 322/14/6
f 312/11/6 313/11/6 323/11/6
f 322/14/6 311/14/6 323/14/6
f 311/11/6 312/11/6 323/11/6
f 313/17/6 314/17/6 324/17/6
f 323/11/6 313/11/6 324/11/6
f 314/9/6 315/9/6 325/9/6
f 324/17/6 314/17/6 325/17/6
f 315/3/6 316/3/6 326/3/6
f 325/9/6 315/9/6 326/9/6
f 316/5/6 317/5/6 327/5/6
f 326/3/6 316/3/6 327/3/6
f 317/12/6 318/12/6 328/12/6
f 327/5/6 317/5/6 328/5/6
f 318/13/6 319/13/6 329/13/6
f 328/12/6 318/12/6 329/12/6
f 319/17/6 320/17/6 330/17/6
f 329/13/6 319/13/6 330/13/6
f 320/21/6 321/21/6 331/21/6
f 330/17/6 320/17/6 331/17/6
f 331/21/6 321/21/6 332/21/6
f 322/1/6 323/1/6 333/1/6
f 323/11/6 324/11/6 334/11/6
f 333/1/6 323/1/6 334/1/6
f 334/11/6 324/11/6 335/11/6
f 324/19/6 325/19/6 336/19/6
f 335/11/6 324/11/6 336/11/6
f 325/9/6 326/9/6 337/9/6
f 336/19/6 325/19/6 337/19/6
f 327/5/6 328/5/6 338/5/6
f 337/9/6 326/9/6 338/9/6
f 326/5/6 327/5/6 338/5/6
f 329/15/6 330/15/6 339/15/6
f 328/1/6 329/1/6 339/1/6
f 330/15/6 331/15/6 339/15/6
f 339/15/6 331/15/6 340/15/6
f 331/9/6 332/9/6 341/9/6
f 340/15/6 331/15/6 341/15/6
f 341/9/6 332/9/6 342/9/6
f 333/14/6 334/14/6 343/14/6
f 334/21/6 335/21/6 344/21/6
f 343/14/6 334/14/6 344/14/6
f 335/16/6 336/16/6 345/16/6
f 344/21/6 335/21/6 345/21/6
f 336/8/6 337/8/6 346/8/6
f 345/16/6 336/16/6 346/16/6
f 337/10/6 338/10/6 347/10/6
f 346/8/6 337/8/6 347/8/6
f 338/5/6 328/5/6 348/5/6
f 347/10/6 338/10/6 348/10/6
f 348/5/6 328/5/6 349/5/6
f 328/1/6 339/1/6 350/1/6
f 349/5/6 328/5/6 350/5/6
f 339/6/6 340/6/6 351/6/6
f 350/1/6 339/1/6 351/1/6
f 340/22/6 341/22/6 352/22/6
f 351/6/6 340/6/6 352/6/6
f 341/19/6 342/19/6 353/19/6
f 352/22/6 341/22/6 353/22/6
f 353/19/6 342/19/6 354/19/6
f 343/17/6 344/17/6 355/17/6
f 344/9/6 345/9/6 356/9/6
f 355/17/6 344/17/6 356/17/6
f 345/13/6 346/13/6 357/13/6
f 356/9/6 345/9/6 357/9/6
f 346/9/6 347/9/6 358/9/6
f 357/13/6 346/13/6 358/13/6
f 347/6/6 348/6/6 359/6/6
f 358/9/6 347/9/6 359/9/6
f 348/5/6 349/5/6 360/5/6
f 359/6/6 348/6/6 360/6/6
f 349/24/6 350/24/6 361/24/6
f 360/5/6 349/5/6 361/5/6
f 350/16/6 351/16/6 362/16/6
f 361/24/6 350/24/6 362/24/6
f 351/12/6 352/12/6 363/12/6
f 362/16/6 351/16/6 363/16/6
f 352/9/6 353/9/6 364/9/6
f 363/12/6 352/12/6 364/12/6
f 353/15/6 354/15/6 365/15/6
f 364/9/6 353/9/6 365/9/6
f 365/15/6 354/15/6 366/15/6
