# MagicaVoxel @ Ephtracy

# group
g twoadjacentcorners

# material
mtllib twoadjacentcorners.mtl
usemtl palette

# normals
vn -1 0 0
vn 1 0 0
vn 0 0 1
vn 0 0 -1
vn 0 -1 0
vn 0 1 0

# texcoords
vt 0.0527344 0.5
vt 0.181641 0.5
vt 0.185547 0.5
vt 0.197266 0.5
vt 0.275391 0.5
vt 0.294922 0.5
vt 0.298828 0.5
vt 0.302734 0.5
vt 0.310547 0.5
vt 0.314453 0.5
vt 0.349609 0.5
vt 0.353516 0.5
vt 0.357422 0.5
vt 0.365234 0.5
vt 0.369141 0.5
vt 0.373047 0.5
vt 0.416016 0.5
vt 0.423828 0.5
vt 0.439453 0.5
vt 0.458984 0.5
vt 0.474609 0.5
vt 0.517578 0.5
vt 0.548828 0.5
vt 0.595703 0.5
vt 0.626953 0.5
vt 0.751953 0.5
vt 0.830078 0.5
vt 0.939453 0.5
vt 0.955078 0.5

# verts
v -8.5 0 8.5
v -8.5 0 7.5
v -8.5 0 6.5
v -8.5 0 5.5
v -8.5 0 4.5
v -8.5 0 3.5
v -8.5 0 -4.5
v -8.5 0 -5.5
v -8.5 0 -7.5
v -8.5 0 -8.5
v -8.5 1 8.5
v -8.5 1 7.5
v -8.5 1 6.5
v -8.5 1 5.5
v -8.5 1 4.5
v -8.5 1 3.5
v -8.5 1 -4.5
v -8.5 1 -5.5
v -8.5 1 -7.5
v -8.5 1 -8.5
v 8.5 0 8.5
v 8.5 0 -8.5
v 8.5 1 8.5
v 8.5 1 -8.5
v -8.5 0 8.5
v -8.5 1 8.5
v -7.5 0 8.5
v -7.5 1 8.5
v -4.5 0 8.5
v -4.5 1 8.5
v -3.5 0 8.5
v -3.5 1 8.5
v 8.5 0 8.5
v 8.5 1 8.5
v -8.5 0 -8.5
v -8.5 1 -8.5
v -7.5 0 -8.5
v -7.5 1 -8.5
v -6.5 0 -8.5
v -6.5 1 -8.5
v -5.5 0 -8.5
v -5.5 1 -8.5
v -4.5 0 -8.5
v -4.5 1 -8.5
v -3.5 0 -8.5
v -3.5 1 -8.5
v 8.5 0 -8.5
v 8.5 1 -8.5
v -8.5 0 8.5
v -7.5 0 8.5
v -4.5 0 8.5
v -3.5 0 8.5
v 8.5 0 8.5
v -8.5 0 7.5
v -7.5 0 7.5
v -6.5 0 7.5
v -5.5 0 7.5
v -4.5 0 7.5
v -3.5 0 7.5
v -8.5 0 6.5
v -7.5 0 6.5
v -6.5 0 6.5
v -5.5 0 6.5
v -4.5 0 6.5
v -3.5 0 6.5
v 0.5 0 6.5
v 1.5 0 6.5
v -8.5 0 5.5
v -7.5 0 5.5
v -6.5 0 5.5
v -5.5 0 5.5
v -4.5 0 5.5
v -3.5 0 5.5
v 0.5 0 5.5
v 1.5 0 5.5
v -8.5 0 4.5
v -7.5 0 4.5
v -6.5 0 4.5
v -5.5 0 4.5
v -4.5 0 4.5
v -3.5 0 4.5
v -8.5 0 3.5
v -7.5 0 3.5
v -6.5 0 3.5
v -5.5 0 3.5
v -4.5 0 3.5
v -3.5 0 3.5
v 5.5 0 3.5
v 6.5 0 3.5
v 5.5 0 2.5
v 6.5 0 2.5
v 1.5 0 1.5
v 2.5 0 1.5
v -7.5 0 0.5
v -6.5 0 0.5
v -5.5 0 0.5
v 1.5 0 0.5
v 2.5 0 0.5
v -7.5 0 -0.5
v -6.5 0 -0.5
v -5.5 0 -0.5
v -2.5 0 -1.5
v -1.5 0 -1.5
v -2.5 0 -2.5
v -1.5 0 -2.5
v -8.5 0 -4.5
v -7.5 0 -4.5
v -6.5 0 -4.5
v -5.5 0 -4.5
v -4.5 0 -4.5
v -3.5 0 -4.5
v -2.5 0 -4.5
v -1.5 0 -4.5
v -8.5 0 -5.5
v -7.5 0 -5.5
v -6.5 0 -5.5
v -5.5 0 -5.5
v -4.5 0 -5.5
v -3.5 0 -5.5
v -2.5 0 -5.5
v -1.5 0 -5.5
v -7.5 0 -6.5
v -6.5 0 -6.5
v -5.5 0 -6.5
v -4.5 0 -6.5
v -3.5 0 -6.5
v -8.5 0 -7.5
v -7.5 0 -7.5
v -6.5 0 -7.5
v -5.5 0 -7.5
v -4.5 0 -7.5
v -3.5 0 -7.5
v -8.5 0 -8.5
v -7.5 0 -8.5
v -6.5 0 -8.5
v -5.5 0 -8.5
v -4.5 0 -8.5
v -3.5 0 -8.5
v 8.5 0 -8.5
v -8.5 1 8.5
v -7.5 1 8.5
v -4.5 1 8.5
v -3.5 1 8.5
v 8.5 1 8.5
v -8.5 1 7.5
v -7.5 1 7.5
v -6.5 1 7.5
v -5.5 1 7.5
v -4.5 1 7.5
v -3.5 1 7.5
v -8.5 1 6.5
v -7.5 1 6.5
v -6.5 1 6.5
v -5.5 1 6.5
v -4.5 1 6.5
v -3.5 1 6.5
v 0.5 1 6.5
v 1.5 1 6.5
v -8.5 1 5.5
v -7.5 1 5.5
v -6.5 1 5.5
v -5.5 1 5.5
v -4.5 1 5.5
v -3.5 1 5.5
v 0.5 1 5.5
v 1.5 1 5.5
v -8.5 1 4.5
v -7.5 1 4.5
v -6.5 1 4.5
v -5.5 1 4.5
v -4.5 1 4.5
v -3.5 1 4.5
v -8.5 1 3.5
v -7.5 1 3.5
v -6.5 1 3.5
v -5.5 1 3.5
v -4.5 1 3.5
v -3.5 1 3.5
v 5.5 1 3.5
v 6.5 1 3.5
v 5.5 1 2.5
v 6.5 1 2.5
v 1.5 1 1.5
v 2.5 1 1.5
v -7.5 1 0.5
v -6.5 1 0.5
v -5.5 1 0.5
v 1.5 1 0.5
v 2.5 1 0.5
v -7.5 1 -0.5
v -6.5 1 -0.5
v -5.5 1 -0.5
v -2.5 1 -1.5
v -1.5 1 -1.5
v -2.5 1 -2.5
v -1.5 1 -2.5
v -8.5 1 -4.5
v -7.5 1 -4.5
v -6.5 1 -4.5
v -5.5 1 -4.5
v -4.5 1 -4.5
v -3.5 1 -4.5
v -2.5 1 -4.5
v -1.5 1 -4.5
v -8.5 1 -5.5
v -7.5 1 -5.5
v -6.5 1 -5.5
v -5.5 1 -5.5
v -4.5 1 -5.5
v -3.5 1 -5.5
v -2.5 1 -5.5
v -1.5 1 -5.5
v -7.5 1 -6.5
v -6.5 1 -6.5
v -5.5 1 -6.5
v -4.5 1 -6.5
v -3.5 1 -6.5
v -8.5 1 -7.5
v -7.5 1 -7.5
v -6.5 1 -7.5
v -5.5 1 -7.5
v -4.5 1 -7.5
v -3.5 1 -7.5
v -8.5 1 -8.5
v -7.5 1 -8.5
v -6.5 1 -8.5
v -5.5 1 -8.5
v -4.5 1 -8.5
v -3.5 1 -8.5
v 8.5 1 -8.5

# faces
f 11/1/1 2/1/1 1/1/1
f 12/2/1 3/2/1 2/2/1
f 12/1/1 2/1/1 11/1/1
f 13/3/1 4/3/1 3/3/1
f 13/2/1 3/2/1 12/2/1
f 14/27/1 5/27/1 4/27/1
f 14/3/1 4/3/1 13/3/1
f 15/29/1 6/29/1 5/29/1
f 15/27/1 5/27/1 14/27/1
f 16/8/1 7/8/1 6/8/1
f 16/29/1 6/29/1 15/29/1
f 17/28/1 8/28/1 7/28/1
f 17/8/1 7/8/1 16/8/1
f 18/29/1 9/29/1 8/29/1
f 18/28/1 8/28/1 17/28/1
f 19/4/1 10/4/1 9/4/1
f 19/29/1 9/29/1 18/29/1
f 20/4/1 10/4/1 19/4/1
f 21/8/2 22/8/2 23/8/2
f 23/8/2 22/8/2 24/8/2
f 27/1/3 26/1/3 25/1/3
f 28/1/3 26/1/3 27/1/3
f 29/20/3 28/20/3 27/20/3
f 30/20/3 28/20/3 29/20/3
f 31/1/3 30/1/3 29/1/3
f 32/1/3 30/1/3 31/1/3
f 33/8/3 32/8/3 31/8/3
f 34/8/3 32/8/3 33/8/3
f 35/4/4 36/4/4 37/4/4
f 37/4/4 36/4/4 38/4/4
f 37/16/4 38/16/4 39/16/4
f 39/16/4 38/16/4 40/16/4
f 39/15/4 40/15/4 41/15/4
f 41/15/4 40/15/4 42/15/4
f 41/13/4 42/13/4 43/13/4
f 43/13/4 42/13/4 44/13/4
f 43/6/4 44/6/4 45/6/4
f 45/6/4 44/6/4 46/6/4
f 45/8/4 46/8/4 47/8/4
f 47/8/4 46/8/4 48/8/4
f 54/1/5 50/1/5 49/1/5
f 55/20/5 51/20/5 50/20/5
f 55/1/5 50/1/5 54/1/5
f 56/20/5 51/20/5 55/20/5
f 57/20/5 51/20/5 56/20/5
f 58/1/5 52/1/5 51/1/5
f 58/20/5 51/20/5 57/20/5
f 59/8/5 53/8/5 52/8/5
f 59/1/5 52/1/5 58/1/5
f 60/2/5 55/2/5 54/2/5
f 61/18/5 56/18/5 55/18/5
f 61/2/5 55/2/5 60/2/5
f 62/12/5 57/12/5 56/12/5
f 62/18/5 56/18/5 61/18/5
f 63/11/5 58/11/5 57/11/5
f 63/12/5 57/12/5 62/12/5
f 64/5/5 59/5/5 58/5/5
f 64/11/5 58/11/5 63/11/5
f 65/8/5 53/8/5 59/8/5
f 65/5/5 59/5/5 64/5/5
f 66/8/5 53/8/5 65/8/5
f 67/8/5 53/8/5 66/8/5
f 68/3/5 61/3/5 60/3/5
f 69/16/5 62/16/5 61/16/5
f 69/3/5 61/3/5 68/3/5
f 70/17/5 63/17/5 62/17/5
f 70/16/5 62/16/5 69/16/5
f 71/14/5 64/14/5 63/14/5
f 71/17/5 63/17/5 70/17/5
f 72/11/5 65/11/5 64/11/5
f 72/14/5 64/14/5 71/14/5
f 73/8/5 66/8/5 65/8/5
f 73/11/5 65/11/5 72/11/5
f 74/7/5 67/7/5 66/7/5
f 74/8/5 66/8/5 73/8/5
f 75/8/5 53/8/5 67/8/5
f 75/7/5 67/7/5 74/7/5
f 76/27/5 69/27/5 68/27/5
f 77/15/5 70/15/5 69/15/5
f 77/27/5 69/27/5 76/27/5
f 78/9/5 71/9/5 70/9/5
f 78/15/5 70/15/5 77/15/5
f 79/16/5 72/16/5 71/16/5
f 79/9/5 71/9/5 78/9/5
f 80/24/5 73/24/5 72/24/5
f 80/16/5 72/16/5 79/16/5
f 81/8/5 74/8/5 73/8/5
f 81/24/5 73/24/5 80/24/5
f 81/8/5 75/8/5 74/8/5
f 82/29/5 77/29/5 76/29/5
f 83/15/5 78/15/5 77/15/5
f 83/29/5 77/29/5 82/29/5
f 84/12/5 79/12/5 78/12/5
f 84/15/5 78/15/5 83/15/5
f 85/19/5 80/19/5 79/19/5
f 85/12/5 79/12/5 84/12/5
f 86/3/5 81/3/5 80/3/5
f 86/19/5 80/19/5 85/19/5
f 87/8/5 75/8/5 81/8/5
f 87/3/5 81/3/5 86/3/5
f 88/8/5 53/8/5 75/8/5
f 88/8/5 75/8/5 87/8/5
f 89/8/5 53/8/5 88/8/5
f 90/8/5 84/8/5 83/8/5
f 90/8/5 87/8/5 86/8/5
f 90/5/5 89/5/5 88/5/5
f 90/8/5 88/8/5 87/8/5
f 90/8/5 85/8/5 84/8/5
f 90/8/5 83/8/5 82/8/5
f 90/8/5 86/8/5 85/8/5
f 91/8/5 53/8/5 89/8/5
f 91/5/5 89/5/5 90/5/5
f 92/8/5 90/8/5 82/8/5
f 92/8/5 91/8/5 90/8/5
f 93/8/5 91/8/5 92/8/5
f 94/8/5 92/8/5 82/8/5
f 95/8/5 92/8/5 94/8/5
f 96/8/5 92/8/5 95/8/5
f 97/26/5 93/26/5 92/26/5
f 97/8/5 92/8/5 96/8/5
f 98/8/5 91/8/5 93/8/5
f 98/26/5 93/26/5 97/26/5
f 99/8/5 94/8/5 82/8/5
f 99/26/5 95/26/5 94/26/5
f 100/6/5 96/6/5 95/6/5
f 100/26/5 95/26/5 99/26/5
f 101/8/5 97/8/5 96/8/5
f 101/6/5 96/6/5 100/6/5
f 101/8/5 98/8/5 97/8/5
f 102/8/5 100/8/5 99/8/5
f 102/8/5 98/8/5 101/8/5
f 102/8/5 101/8/5 100/8/5
f 103/8/5 98/8/5 102/8/5
f 104/8/5 102/8/5 99/8/5
f 104/5/5 103/5/5 102/5/5
f 105/8/5 98/8/5 103/8/5
f 105/5/5 103/5/5 104/5/5
f 106/8/5 99/8/5 82/8/5
f 106/8/5 104/8/5 99/8/5
f 106/8/5 105/8/5 104/8/5
f 107/8/5 105/8/5 106/8/5
f 108/8/5 105/8/5 107/8/5
f 109/8/5 105/8/5 108/8/5
f 110/8/5 105/8/5 109/8/5
f 111/8/5 105/8/5 110/8/5
f 112/8/5 105/8/5 111/8/5
f 113/8/5 98/8/5 105/8/5
f 113/8/5 105/8/5 112/8/5
f 114/28/5 107/28/5 106/28/5
f 115/15/5 108/15/5 107/15/5
f 115/28/5 107/28/5 114/28/5
f 116/19/5 109/19/5 108/19/5
f 116/15/5 108/15/5 115/15/5
f 117/11/5 110/11/5 109/11/5
f 117/19/5 109/19/5 116/19/5
f 118/25/5 111/25/5 110/25/5
f 118/11/5 110/11/5 117/11/5
f 119/8/5 112/8/5 111/8/5
f 119/25/5 111/25/5 118/25/5
f 120/10/5 113/10/5 112/10/5
f 120/8/5 112/8/5 119/8/5
f 121/8/5 98/8/5 113/8/5
f 121/10/5 113/10/5 120/10/5
f 122/29/5 115/29/5 114/29/5
f 122/22/5 116/22/5 115/22/5
f 123/17/5 117/17/5 116/17/5
f 123/22/5 116/22/5 122/22/5
f 124/9/5 118/9/5 117/9/5
f 124/17/5 117/17/5 123/17/5
f 125/14/5 119/14/5 118/14/5
f 125/9/5 118/9/5 124/9/5
f 126/8/5 120/8/5 119/8/5
f 126/14/5 119/14/5 125/14/5
f 126/8/5 121/8/5 120/8/5
f 127/29/5 122/29/5 114/29/5
f 128/12/5 123/12/5 122/12/5
f 128/29/5 122/29/5 127/29/5
f 129/23/5 124/23/5 123/23/5
f 129/12/5 123/12/5 128/12/5
f 130/9/5 125/9/5 124/9/5
f 130/23/5 124/23/5 129/23/5
f 131/21/5 126/21/5 125/21/5
f 131/9/5 125/9/5 130/9/5
f 132/8/5 121/8/5 126/8/5
f 132/21/5 126/21/5 131/21/5
f 133/4/5 128/4/5 127/4/5
f 134/16/5 129/16/5 128/16/5
f 134/4/5 128/4/5 133/4/5
f 135/15/5 130/15/5 129/15/5
f 135/16/5 129/16/5 134/16/5
f 136/13/5 131/13/5 130/13/5
f 136/15/5 130/15/5 135/15/5
f 137/6/5 132/6/5 131/6/5
f 137/13/5 131/13/5 136/13/5
f 138/8/5 121/8/5 132/8/5
f 138/6/5 132/6/5 137/6/5
f 139/8/5 53/8/5 91/8/5
f 139/8/5 121/8/5 138/8/5
f 139/8/5 91/8/5 98/8/5
f 139/8/5 98/8/5 121/8/5
f 140/1/6 141/1/6 145/1/6
f 141/20/6 142/20/6 146/20/6
f 145/1/6 141/1/6 146/1/6
f 146/20/6 142/20/6 147/20/6
f 147/20/6 142/20/6 148/20/6
f 142/1/6 143/1/6 149/1/6
f 148/20/6 142/20/6 149/20/6
f 143/8/6 144/8/6 150/8/6
f 149/1/6 143/1/6 150/1/6
f 145/2/6 146/2/6 151/2/6
f 146/18/6 147/18/6 152/18/6
f 151/2/6 146/2/6 152/2/6
f 147/12/6 148/12/6 153/12/6
f 152/18/6 147/18/6 153/18/6
f 148/11/6 149/11/6 154/11/6
f 153/12/6 148/12/6 154/12/6
f 149/5/6 150/5/6 155/5/6
f 154/11/6 149/11/6 155/11/6
f 150/8/6 144/8/6 156/8/6
f 155/5/6 150/5/6 156/5/6
f 156/8/6 144/8/6 157/8/6
f 157/8/6 144/8/6 158/8/6
f 151/3/6 152/3/6 159/3/6
f 152/16/6 153/16/6 160/16/6
f 159/3/6 152/3/6 160/3/6
f 153/17/6 154/17/6 161/17/6
f 160/16/6 153/16/6 161/16/6
f 154/14/6 155/14/6 162/14/6
f 161/17/6 154/17/6 162/17/6
f 155/11/6 156/11/6 163/11/6
f 162/14/6 155/14/6 163/14/6
f 156/8/6 157/8/6 164/8/6
f 163/11/6 156/11/6 164/11/6
f 157/7/6 158/7/6 165/7/6
f 164/8/6 157/8/6 165/8/6
f 158/8/6 144/8/6 166/8/6
f 165/7/6 158/7/6 166/7/6
f 159/27/6 160/27/6 167/27/6
f 160/15/6 161/15/6 168/15/6
f 167/27/6 160/27/6 168/27/6
f 161/9/6 162/9/6 169/9/6
f 168/15/6 161/15/6 169/15/6
f 162/16/6 163/16/6 170/16/6
f 169/9/6 162/9/6 170/9/6
f 163/24/6 164/24/6 171/24/6
f 170/16/6 163/16/6 171/16/6
f 164/8/6 165/8/6 172/8/6
f 171/24/6 164/24/6 172/24/6
f 165/8/6 166/8/6 172/8/6
f 167/29/6 168/29/6 173/29/6
f 168/15/6 169/15/6 174/15/6
f 173/29/6 168/29/6 174/29/6
f 169/12/6 170/12/6 175/12/6
f 174/15/6 169/15/6 175/15/6
f 170/19/6 171/19/6 176/19/6
f 175/12/6 170/12/6 176/12/6
f 171/3/6 172/3/6 177/3/6
f 176/19/6 171/19/6 177/19/6
f 172/8/6 166/8/6 178/8/6
f 177/3/6 172/3/6 178/3/6
f 166/8/6 144/8/6 179/8/6
f 178/8/6 166/8/6 179/8/6
f 179/8/6 144/8/6 180/8/6
f 174/8/6 175/8/6 181/8/6
f 177/8/6 178/8/6 181/8/6
f 179/5/6 180/5/6 181/5/6
f 178/8/6 179/8/6 181/8/6
f 175/8/6 176/8/6 181/8/6
f 173/8/6 174/8/6 181/8/6
f 176/8/6 177/8/6 181/8/6
f 180/8/6 144/8/6 182/8/6
f 181/5/6 180/5/6 182/5/6
f 173/8/6 181/8/6 183/8/6
f 181/8/6 182/8/6 183/8/6
f 183/8/6 182/8/6 184/8/6
f 173/8/6 183/8/6 185/8/6
f 185/8/6 183/8/6 186/8/6
f 186/8/6 183/8/6 187/8/6
f 183/26/6 184/26/6 188/26/6
f 187/8/6 183/8/6 188/8/6
f 184/8/6 182/8/6 189/8/6
f 188/26/6 184/26/6 189/26/6
f 173/8/6 185/8/6 190/8/6
f 185/26/6 186/26/6 190/26/6
f 186/6/6 187/6/6 191/6/6
f 190/26/6 186/26/6 191/26/6
f 187/8/6 188/8/6 192/8/6
f 191/6/6 187/6/6 192/6/6
f 188/8/6 189/8/6 192/8/6
f 190/8/6 191/8/6 193/8/6
f 192/8/6 189/8/6 193/8/6
f 191/8/6 192/8/6 193/8/6
f 193/8/6 189/8/6 194/8/6
f 190/8/6 193/8/6 195/8/6
f 193/5/6 194/5/6 195/5/6
f 194/8/6 189/8/6 196/8/6
f 195/5/6 194/5/6 196/5/6
f 173/8/6 190/8/6 197/8/6
f 190/8/6 195/8/6 197/8/6
f 195/8/6 196/8/6 197/8/6
f 197/8/6 196/8/6 198/8/6
f 198/8/6 196/8/6 199/8/6
f 199/8/6 196/8/6 200/8/6
f 200/8/6 196/8/6 201/8/6
f 201/8/6 196/8/6 202/8/6
f 202/8/6 196/8/6 203/8/6
f 196/8/6 189/8/6 204/8/6
f 203/8/6 196/8/6 204/8/6
f 197/28/6 198/28/6 205/28/6
f 198/15/6 199/15/6 206/15/6
f 205/28/6 198/28/6 206/28/6
f 199/19/6 200/19/6 207/19/6
f 206/15/6 199/15/6 207/15/6
f 200/11/6 201/11/6 208/11/6
f 207/19/6 200/19/6 208/19/6
f 201/25/6 202/25/6 209/25/6
f 208/11/6 201/11/6 209/11/6
f 202/8/6 203/8/6 210/8/6
f 209/25/6 202/25/6 210/25/6
f 203/10/6 204/10/6 211/10/6
f 210/8/6 203/8/6 211/8/6
f 204/8/6 189/8/6 212/8/6
f 211/10/6 204/10/6 212/10/6
f 205/29/6 206/29/6 213/29/6
f 206/22/6 207/22/6 213/22/6
f 207/17/6 208/17/6 214/17/6
f 213/22/6 207/22/6 214/22/6
f 208/9/6 209/9/6 215/9/6
f 214/17/6 208/17/6 215/17/6
f 209/14/6 210/14/6 216/14/6
f 215/9/6 209/9/6 216/9/6
f 210/8/6 211/8/6 217/8/6
f 216/14/6 210/14/6 217/14/6
f 211/8/6 212/8/6 217/8/6
f 205/29/6 213/29/6 218/29/6
f 213/12/6 214/12/6 219/12/6
f 218/29/6 213/29/6 219/29/6
f 214/23/6 215/23/6 220/23/6
f 219/12/6 214/12/6 220/12/6
f 215/9/6 216/9/6 221/9/6
f 220/23/6 215/23/6 221/23/6
f 216/21/6 217/21/6 222/21/6
f 221/9/6 216/9/6 222/9/6
f 217/8/6 212/8/6 223/8/6
f 222/21/6 217/21/6 223/21/6
f 218/4/6 219/4/6 224/4/6
f 219/16/6 220/16/6 225/16/6
f 224/4/6 219/4/6 225/4/6
f 220/15/6 221/15/6 226/15/6
f 225/16/6 220/16/6 226/16/6
f 221/13/6 222/13/6 227/13/6
f 226/15/6 221/15/6 227/15/6
f 222/6/6 223/6/6 228/6/6
f 227/13/6 222/13/6 228/13/6
f 223/8/6 212/8/6 229/8/6
f 228/6/6 223/6/6 229/6/6
f 182/8/6 144/8/6 230/8/6
f 229/8/6 212/8/6 230/8/6
f 189/8/6 182/8/6 230/8/6
f 212/8/6 189/8/6 230/8/6
