# MagicaVoxel @ Ephtracy

# group
g twooppositecorners

# material
mtllib twooppositecorners.mtl
usemtl palette

# normals
vn -1 0 0
vn 1 0 0
vn 0 0 1
vn 0 0 -1
vn 0 -1 0
vn 0 1 0

# texcoords
vt 0.00585938 0.5
vt 0.197266 0.5
vt 0.275391 0.5
vt 0.294922 0.5
vt 0.298828 0.5
vt 0.302734 0.5
vt 0.314453 0.5
vt 0.349609 0.5
vt 0.353516 0.5
vt 0.357422 0.5
vt 0.365234 0.5
vt 0.369141 0.5
vt 0.416016 0.5
vt 0.423828 0.5
vt 0.439453 0.5
vt 0.458984 0.5
vt 0.474609 0.5
vt 0.517578 0.5
vt 0.548828 0.5
vt 0.595703 0.5
vt 0.751953 0.5
vt 0.939453 0.5
vt 0.955078 0.5
vt 0.970703 0.5

# verts
v -8.5 0 8.5
v -8.5 0 -4.5
v -8.5 0 -6.5
v -8.5 0 -7.5
v -8.5 0 -8.5
v -8.5 1 8.5
v -8.5 1 -4.5
v -8.5 1 -6.5
v -8.5 1 -7.5
v -8.5 1 -8.5
v 8.5 0 8.5
v 8.5 0 7.5
v 8.5 0 6.5
v 8.5 0 5.5
v 8.5 0 4.5
v 8.5 0 3.5
v 8.5 0 -8.5
v 8.5 1 8.5
v 8.5 1 7.5
v 8.5 1 6.5
v 8.5 1 5.5
v 8.5 1 4.5
v 8.5 1 3.5
v 8.5 1 -8.5
v -8.5 0 8.5
v -8.5 1 8.5
v 3.5 0 8.5
v 3.5 1 8.5
v 4.5 0 8.5
v 4.5 1 8.5
v 6.5 0 8.5
v 6.5 1 8.5
v 7.5 0 8.5
v 7.5 1 8.5
v 8.5 0 8.5
v 8.5 1 8.5
v -8.5 0 -8.5
v -8.5 1 -8.5
v -7.5 0 -8.5
v -7.5 1 -8.5
v -5.5 0 -8.5
v -5.5 1 -8.5
v -4.5 0 -8.5
v -4.5 1 -8.5
v -3.5 0 -8.5
v -3.5 1 -8.5
v 8.5 0 -8.5
v 8.5 1 -8.5
v -8.5 0 8.5
v 3.5 0 8.5
v 4.5 0 8.5
v 6.5 0 8.5
v 7.5 0 8.5
v 8.5 0 8.5
v 3.5 0 7.5
v 4.5 0 7.5
v 5.5 0 7.5
v 6.5 0 7.5
v 7.5 0 7.5
v 8.5 0 7.5
v 0.5 0 6.5
v 1.5 0 6.5
v 4.5 0 6.5
v 5.5 0 6.5
v 6.5 0 6.5
v 7.5 0 6.5
v 8.5 0 6.5
v 0.5 0 5.5
v 1.5 0 5.5
v 3.5 0 5.5
v 4.5 0 5.5
v 5.5 0 5.5
v 6.5 0 5.5
v 7.5 0 5.5
v 8.5 0 5.5
v 3.5 0 4.5
v 4.5 0 4.5
v 5.5 0 4.5
v 6.5 0 4.5
v 7.5 0 4.5
v 8.5 0 4.5
v 3.5 0 3.5
v 4.5 0 3.5
v 5.5 0 3.5
v 6.5 0 3.5
v 7.5 0 3.5
v 8.5 0 3.5
v 5.5 0 2.5
v 6.5 0 2.5
v 1.5 0 1.5
v 2.5 0 1.5
v -7.5 0 0.5
v -6.5 0 0.5
v -5.5 0 0.5
v 1.5 0 0.5
v 2.5 0 0.5
v -7.5 0 -0.5
v -6.5 0 -0.5
v -5.5 0 -0.5
v -2.5 0 -1.5
v -1.5 0 -1.5
v -2.5 0 -2.5
v -1.5 0 -2.5
v -8.5 0 -4.5
v -7.5 0 -4.5
v -6.5 0 -4.5
v -5.5 0 -4.5
v -4.5 0 -4.5
v -3.5 0 -4.5
v -2.5 0 -4.5
v -1.5 0 -4.5
v -7.5 0 -5.5
v -6.5 0 -5.5
v -5.5 0 -5.5
v -4.5 0 -5.5
v -3.5 0 -5.5
v -2.5 0 -5.5
v -1.5 0 -5.5
v -8.5 0 -6.5
v -7.5 0 -6.5
v -6.5 0 -6.5
v -5.5 0 -6.5
v -4.5 0 -6.5
v -3.5 0 -6.5
v -8.5 0 -7.5
v -7.5 0 -7.5
v -6.5 0 -7.5
v -5.5 0 -7.5
v -4.5 0 -7.5
v -3.5 0 -7.5
v -8.5 0 -8.5
v -7.5 0 -8.5
v -5.5 0 -8.5
v -4.5 0 -8.5
v -3.5 0 -8.5
v 8.5 0 -8.5
v -8.5 1 8.5
v 3.5 1 8.5
v 4.5 1 8.5
v 6.5 1 8.5
v 7.5 1 8.5
v 8.5 1 8.5
v 3.5 1 7.5
v 4.5 1 7.5
v 5.5 1 7.5
v 6.5 1 7.5
v 7.5 1 7.5
v 8.5 1 7.5
v 0.5 1 6.5
v 1.5 1 6.5
v 4.5 1 6.5
v 5.5 1 6.5
v 6.5 1 6.5
v 7.5 1 6.5
v 8.5 1 6.5
v 0.5 1 5.5
v 1.5 1 5.5
v 3.5 1 5.5
v 4.5 1 5.5
v 5.5 1 5.5
v 6.5 1 5.5
v 7.5 1 5.5
v 8.5 1 5.5
v 3.5 1 4.5
v 4.5 1 4.5
v 5.5 1 4.5
v 6.5 1 4.5
v 7.5 1 4.5
v 8.5 1 4.5
v 3.5 1 3.5
v 4.5 1 3.5
v 5.5 1 3.5
v 6.5 1 3.5
v 7.5 1 3.5
v 8.5 1 3.5
v 5.5 1 2.5
v 6.5 1 2.5
v 1.5 1 1.5
v 2.5 1 1.5
v -7.5 1 0.5
v -6.5 1 0.5
v -5.5 1 0.5
v 1.5 1 0.5
v 2.5 1 0.5
v -7.5 1 -0.5
v -6.5 1 -0.5
v -5.5 1 -0.5
v -2.5 1 -1.5
v -1.5 1 -1.5
v -2.5 1 -2.5
v -1.5 1 -2.5
v -8.5 1 -4.5
v -7.5 1 -4.5
v -6.5 1 -4.5
v -5.5 1 -4.5
v -4.5 1 -4.5
v -3.5 1 -4.5
v -2.5 1 -4.5
v -1.5 1 -4.5
v -7.5 1 -5.5
v -6.5 1 -5.5
v -5.5 1 -5.5
v -4.5 1 -5.5
v -3.5 1 -5.5
v -2.5 1 -5.5
v -1.5 1 -5.5
v -8.5 1 -6.5
v -7.5 1 -6.5
v -6.5 1 -6.5
v -5.5 1 -6.5
v -4.5 1 -6.5
v -3.5 1 -6.5
v -8.5 1 -7.5
v -7.5 1 -7.5
v -6.5 1 -7.5
v -5.5 1 -7.5
v -4.5 1 -7.5
v -3.5 1 -7.5
v -8.5 1 -8.5
v -7.5 1 -8.5
v -5.5 1 -8.5
v -4.5 1 -8.5
v -3.5 1 -8.5
v 8.5 1 -8.5

# faces
f 6/6/1 2/6/1 1/6/1
f 7/22/1 3/22/1 2/22/1
f 7/6/1 2/6/1 6/6/1
f 8/23/1 4/23/1 3/23/1
f 8/22/1 3/22/1 7/22/1
f 9/2/1 5/2/1 4/2/1
f 9/23/1 4/23/1 8/23/1
f 10/2/1 5/2/1 9/2/1
f 11/23/2 12/23/2 18/23/2
f 12/4/2 13/4/2 19/4/2
f 18/23/2 12/23/2 19/23/2
f 13/9/2 14/9/2 20/9/2
f 19/4/2 13/4/2 20/4/2
f 14/11/2 15/11/2 21/11/2
f 20/9/2 14/9/2 21/9/2
f 15/4/2 16/4/2 22/4/2
f 21/11/2 15/11/2 22/11/2
f 16/6/2 17/6/2 23/6/2
f 22/4/2 16/4/2 23/4/2
f 23/6/2 17/6/2 24/6/2
f 27/6/3 26/6/3 25/6/3
f 28/6/3 26/6/3 27/6/3
f 29/3/3 28/3/3 27/3/3
f 30/3/3 28/3/3 29/3/3
f 31/16/3 30/16/3 29/16/3
f 32/16/3 30/16/3 31/16/3
f 33/24/3 32/24/3 31/24/3
f 34/24/3 32/24/3 33/24/3
f 35/23/3 34/23/3 33/23/3
f 36/23/3 34/23/3 35/23/3
f 37/2/4 38/2/4 39/2/4
f 39/2/4 38/2/4 40/2/4
f 39/10/4 40/10/4 41/10/4
f 41/10/4 40/10/4 42/10/4
f 41/9/4 42/9/4 43/9/4
f 43/9/4 42/9/4 44/9/4
f 43/4/4 44/4/4 45/4/4
f 45/4/4 44/4/4 46/4/4
f 45/6/4 46/6/4 47/6/4
f 47/6/4 46/6/4 48/6/4
f 55/6/5 50/6/5 49/6/5
f 55/3/5 51/3/5 50/3/5
f 56/16/5 52/16/5 51/16/5
f 56/3/5 51/3/5 55/3/5
f 57/16/5 52/16/5 56/16/5
f 58/24/5 53/24/5 52/24/5
f 58/16/5 52/16/5 57/16/5
f 59/23/5 54/23/5 53/23/5
f 59/24/5 53/24/5 58/24/5
f 60/23/5 54/23/5 59/23/5
f 61/6/5 55/6/5 49/6/5
f 62/6/5 55/6/5 61/6/5
f 63/12/5 57/12/5 56/12/5
f 63/22/5 56/22/5 55/22/5
f 64/14/5 58/14/5 57/14/5
f 64/12/5 57/12/5 63/12/5
f 65/13/5 59/13/5 58/13/5
f 65/14/5 58/14/5 64/14/5
f 66/4/5 60/4/5 59/4/5
f 66/13/5 59/13/5 65/13/5
f 67/4/5 60/4/5 66/4/5
f 68/5/5 62/5/5 61/5/5
f 68/6/5 61/6/5 49/6/5
f 69/6/5 55/6/5 62/6/5
f 69/5/5 62/5/5 68/5/5
f 70/22/5 63/22/5 55/22/5
f 70/6/5 55/6/5 69/6/5
f 71/11/5 64/11/5 63/11/5
f 71/22/5 63/22/5 70/22/5
f 72/20/5 65/20/5 64/20/5
f 72/11/5 64/11/5 71/11/5
f 73/8/5 66/8/5 65/8/5
f 73/20/5 65/20/5 72/20/5
f 74/9/5 67/9/5 66/9/5
f 74/8/5 66/8/5 73/8/5
f 75/9/5 67/9/5 74/9/5
f 76/6/5 69/6/5 68/6/5
f 76/6/5 70/6/5 69/6/5
f 76/23/5 71/23/5 70/23/5
f 77/1/5 72/1/5 71/1/5
f 77/23/5 71/23/5 76/23/5
f 78/18/5 73/18/5 72/18/5
f 78/1/5 72/1/5 77/1/5
f 79/4/5 74/4/5 73/4/5
f 79/18/5 73/18/5 78/18/5
f 80/11/5 75/11/5 74/11/5
f 80/4/5 74/4/5 79/4/5
f 81/11/5 75/11/5 80/11/5
f 82/2/5 77/2/5 76/2/5
f 82/6/5 76/6/5 68/6/5
f 83/10/5 78/10/5 77/10/5
f 83/2/5 77/2/5 82/2/5
f 84/15/5 79/15/5 78/15/5
f 84/10/5 78/10/5 83/10/5
f 85/9/5 80/9/5 79/9/5
f 85/15/5 79/15/5 84/15/5
f 86/4/5 81/4/5 80/4/5
f 86/9/5 80/9/5 85/9/5
f 87/4/5 81/4/5 86/4/5
f 88/6/5 83/6/5 82/6/5
f 88/3/5 85/3/5 84/3/5
f 88/6/5 84/6/5 83/6/5
f 89/6/5 87/6/5 86/6/5
f 89/3/5 85/3/5 88/3/5
f 89/6/5 86/6/5 85/6/5
f 90/6/5 82/6/5 68/6/5
f 90/6/5 88/6/5 82/6/5
f 90/6/5 89/6/5 88/6/5
f 91/6/5 89/6/5 90/6/5
f 92/6/5 68/6/5 49/6/5
f 92/6/5 90/6/5 68/6/5
f 93/6/5 90/6/5 92/6/5
f 94/6/5 90/6/5 93/6/5
f 95/21/5 91/21/5 90/21/5
f 95/6/5 90/6/5 94/6/5
f 96/6/5 89/6/5 91/6/5
f 96/21/5 91/21/5 95/21/5
f 97/6/5 92/6/5 49/6/5
f 97/21/5 93/21/5 92/21/5
f 98/4/5 94/4/5 93/4/5
f 98/21/5 93/21/5 97/21/5
f 99/6/5 95/6/5 94/6/5
f 99/4/5 94/4/5 98/4/5
f 99/6/5 96/6/5 95/6/5
f 100/6/5 98/6/5 97/6/5
f 100/6/5 96/6/5 99/6/5
f 100/6/5 99/6/5 98/6/5
f 101/6/5 96/6/5 100/6/5
f 102/6/5 100/6/5 97/6/5
f 102/3/5 101/3/5 100/3/5
f 103/6/5 96/6/5 101/6/5
f 103/3/5 101/3/5 102/3/5
f 104/6/5 97/6/5 49/6/5
f 104/6/5 102/6/5 97/6/5
f 104/6/5 103/6/5 102/6/5
f 105/6/5 103/6/5 104/6/5
f 106/6/5 103/6/5 105/6/5
f 107/6/5 103/6/5 106/6/5
f 108/6/5 103/6/5 107/6/5
f 109/6/5 103/6/5 108/6/5
f 110/6/5 103/6/5 109/6/5
f 111/6/5 96/6/5 103/6/5
f 111/6/5 103/6/5 110/6/5
f 112/22/5 105/22/5 104/22/5
f 112/10/5 106/10/5 105/10/5
f 113/9/5 107/9/5 106/9/5
f 113/10/5 106/10/5 112/10/5
f 114/17/5 108/17/5 107/17/5
f 114/9/5 107/9/5 113/9/5
f 115/4/5 109/4/5 108/4/5
f 115/17/5 108/17/5 114/17/5
f 116/6/5 110/6/5 109/6/5
f 116/4/5 109/4/5 115/4/5
f 117/7/5 111/7/5 110/7/5
f 117/6/5 110/6/5 116/6/5
f 118/6/5 96/6/5 111/6/5
f 118/7/5 111/7/5 117/7/5
f 119/22/5 112/22/5 104/22/5
f 120/8/5 113/8/5 112/8/5
f 120/22/5 112/22/5 119/22/5
f 121/13/5 114/13/5 113/13/5
f 121/8/5 113/8/5 120/8/5
f 122/18/5 115/18/5 114/18/5
f 122/13/5 114/13/5 121/13/5
f 123/14/5 116/14/5 115/14/5
f 123/18/5 115/18/5 122/18/5
f 124/6/5 117/6/5 116/6/5
f 124/14/5 116/14/5 123/14/5
f 124/6/5 118/6/5 117/6/5
f 125/23/5 120/23/5 119/23/5
f 126/1/5 121/1/5 120/1/5
f 126/23/5 120/23/5 125/23/5
f 127/9/5 122/9/5 121/9/5
f 127/1/5 121/1/5 126/1/5
f 128/18/5 123/18/5 122/18/5
f 128/9/5 122/9/5 127/9/5
f 129/19/5 124/19/5 123/19/5
f 129/18/5 123/18/5 128/18/5
f 130/6/5 118/6/5 124/6/5
f 130/19/5 124/19/5 129/19/5
f 131/2/5 126/2/5 125/2/5
f 132/10/5 127/10/5 126/10/5
f 132/2/5 126/2/5 131/2/5
f 132/10/5 128/10/5 127/10/5
f 133/9/5 129/9/5 128/9/5
f 133/10/5 128/10/5 132/10/5
f 134/4/5 130/4/5 129/4/5
f 134/9/5 129/9/5 133/9/5
f 135/6/5 118/6/5 130/6/5
f 135/4/5 130/4/5 134/4/5
f 136/6/5 89/6/5 96/6/5
f 136/6/5 118/6/5 135/6/5
f 136/6/5 87/6/5 89/6/5
f 136/6/5 96/6/5 118/6/5
f 137/6/6 138/6/6 143/6/6
f 138/3/6 139/3/6 143/3/6
f 139/16/6 140/16/6 144/16/6
f 143/3/6 139/3/6 144/3/6
f 144/16/6 140/16/6 145/16/6
f 140/24/6 141/24/6 146/24/6
f 145/16/6 140/16/6 146/16/6
f 141/23/6 142/23/6 147/23/6
f 146/24/6 141/24/6 147/24/6
f 147/23/6 142/23/6 148/23/6
f 137/6/6 143/6/6 149/6/6
f 149/6/6 143/6/6 150/6/6
f 144/12/6 145/12/6 151/12/6
f 143/22/6 144/22/6 151/22/6
f 145/14/6 146/14/6 152/14/6
f 151/12/6 145/12/6 152/12/6
f 146/13/6 147/13/6 153/13/6
f 152/14/6 146/14/6 153/14/6
f 147/4/6 148/4/6 154/4/6
f 153/13/6 147/13/6 154/13/6
f 154/4/6 148/4/6 155/4/6
f 149/5/6 150/5/6 156/5/6
f 137/6/6 149/6/6 156/6/6
f 150/6/6 143/6/6 157/6/6
f 156/5/6 150/5/6 157/5/6
f 143/22/6 151/22/6 158/22/6
f 157/6/6 143/6/6 158/6/6
f 151/11/6 152/11/6 159/11/6
f 158/22/6 151/22/6 159/22/6
f 152/20/6 153/20/6 160/20/6
f 159/11/6 152/11/6 160/11/6
f 153/8/6 154/8/6 161/8/6
f 160/20/6 153/20/6 161/20/6
f 154/9/6 155/9/6 162/9/6
f 161/8/6 154/8/6 162/8/6
f 162/9/6 155/9/6 163/9/6
f 156/6/6 157/6/6 164/6/6
f 157/6/6 158/6/6 164/6/6
f 158/23/6 159/23/6 164/23/6
f 159/1/6 160/1/6 165/1/6
f 164/23/6 159/23/6 165/23/6
f 160/18/6 161/18/6 166/18/6
f 165/1/6 160/1/6 166/1/6
f 161/4/6 162/4/6 167/4/6
f 166/18/6 161/18/6 167/18/6
f 162/11/6 163/11/6 168/11/6
f 167/4/6 162/4/6 168/4/6
f 168/11/6 163/11/6 169/11/6
f 164/2/6 165/2/6 170/2/6
f 156/6/6 164/6/6 170/6/6
f 165/10/6 166/10/6 171/10/6
f 170/2/6 165/2/6 171/2/6
f 166/15/6 167/15/6 172/15/6
f 171/10/6 166/10/6 172/10/6
f 167/9/6 168/9/6 173/9/6
f 172/15/6 167/15/6 173/15/6
f 168/4/6 169/4/6 174/4/6
f 173/9/6 168/9/6 174/9/6
f 174/4/6 169/4/6 175/4/6
f 170/6/6 171/6/6 176/6/6
f 172/3/6 173/3/6 176/3/6
f 171/6/6 172/6/6 176/6/6
f 174/6/6 175/6/6 177/6/6
f 176/3/6 173/3/6 177/3/6
f 173/6/6 174/6/6 177/6/6
f 156/6/6 170/6/6 178/6/6
f 170/6/6 176/6/6 178/6/6
f 176/6/6 177/6/6 178/6/6
f 178/6/6 177/6/6 179/6/6
f 137/6/6 156/6/6 180/6/6
f 156/6/6 178/6/6 180/6/6
f 180/6/6 178/6/6 181/6/6
f 181/6/6 178/6/6 182/6/6
f 178/21/6 179/21/6 183/21/6
f 182/6/6 178/6/6 183/6/6
f 179/6/6 177/6/6 184/6/6
f 183/21/6 179/21/6 184/21/6
f 137/6/6 180/6/6 185/6/6
f 180/21/6 181/21/6 185/21/6
f 181/4/6 182/4/6 186/4/6
f 185/21/6 181/21/6 186/21/6
f 182/6/6 183/6/6 187/6/6
f 186/4/6 182/4/6 187/4/6
f 183/6/6 184/6/6 187/6/6
f 185/6/6 186/6/6 188/6/6
f 187/6/6 184/6/6 188/6/6
f 186/6/6 187/6/6 188/6/6
f 188/6/6 184/6/6 189/6/6
f 185/6/6 188/6/6 190/6/6
f 188/3/6 189/3/6 190/3/6
f 189/6/6 184/6/6 191/6/6
f 190/3/6 189/3/6 191/3/6
f 137/6/6 185/6/6 192/6/6
f 185/6/6 190/6/6 192/6/6
f 190/6/6 191/6/6 192/6/6
f 192/6/6 191/6/6 193/6/6
f 193/6/6 191/6/6 194/6/6
f 194/6/6 191/6/6 195/6/6
f 195/6/6 191/6/6 196/6/6
f 196/6/6 191/6/6 197/6/6
f 197/6/6 191/6/6 198/6/6
f 191/6/6 184/6/6 199/6/6
f 198/6/6 191/6/6 199/6/6
f 192/22/6 193/22/6 200/22/6
f 193/10/6 194/10/6 200/10/6
f 194/9/6 195/9/6 201/9/6
f 200/10/6 194/10/6 201/10/6
f 195/17/6 196/17/6 202/17/6
f 201/9/6 195/9/6 202/9/6
f 196/4/6 197/4/6 203/4/6
f 202/17/6 196/17/6 203/17/6
f 197/6/6 198/6/6 204/6/6
f 203/4/6 197/4/6 204/4/6
f 198/7/6 199/7/6 205/7/6
f 204/6/6 198/6/6 205/6/6
f 199/6/6 184/6/6 206/6/6
f 205/7/6 199/7/6 206/7/6
f 192/22/6 200/22/6 207/22/6
f 200/8/6 201/8/6 208/8/6
f 207/22/6 200/22/6 208/22/6
f 201/13/6 202/13/6 209/13/6
f 208/8/6 201/8/6 209/8/6
f 202/18/6 203/18/6 210/18/6
f 209/13/6 202/13/6 210/13/6
f 203/14/6 204/14/6 211/14/6
f 210/18/6 203/18/6 211/18/6
f 204/6/6 205/6/6 212/6/6
f 211/14/6 204/14/6 212/14/6
f 205/6/6 206/6/6 212/6/6
f 207/23/6 208/23/6 213/23/6
f 208/1/6 209/1/6 214/1/6
f 213/23/6 208/23/6 214/23/6
f 209/9/6 210/9/6 215/9/6
f 214/1/6 209/1/6 215/1/6
f 210/18/6 211/18/6 216/18/6
f 215/9/6 210/9/6 216/9/6
f 211/19/6 212/19/6 217/19/6
f 216/18/6 211/18/6 217/18/6
f 212/6/6 206/6/6 218/6/6
f 217/19/6 212/19/6 218/19/6
f 213/2/6 214/2/6 219/2/6
f 214/10/6 215/10/6 220/10/6
f 219/2/6 214/2/6 220/2/6
f 215/10/6 216/10/6 220/10/6
f 216/9/6 217/9/6 221/9/6
f 220/10/6 216/10/6 221/10/6
f 217/4/6 218/4/6 222/4/6
f 221/9/6 217/9/6 222/9/6
f 218/6/6 206/6/6 223/6/6
f 222/4/6 218/4/6 223/4/6
f 184/6/6 177/6/6 224/6/6
f 223/6/6 206/6/6 224/6/6
f 177/6/6 175/6/6 224/6/6
f 206/6/6 184/6/6 224/6/6
