# MagicaVoxel @ Ephtracy

# group
g onesideonecorner

# material
mtllib onesideonecorner.mtl
usemtl palette

# normals
vn -1 0 0
vn 1 0 0
vn 0 0 1
vn 0 0 -1
vn 0 -1 0
vn 0 1 0

# texcoords
vt 0.537109 0.5
vt 0.896484 0.5

# verts
v -4 0 4
v -4 0 -4
v -4 8 4
v -4 8 -4
v 4 0 4
v 4 0 -4
v 4 6 4
v 4 6 -3
v 4 8 4
v 4 8 -3
v 4 8 -4
v -4 0 4
v -4 8 4
v -3 6 4
v -3 8 4
v 4 0 4
v 4 6 4
v 4 8 4
v -4 0 -4
v -4 8 -4
v -3 6 -4
v -3 8 -4
v 3 6 -4
v 3 8 -4
v 4 0 -4
v 4 8 -4
v -4 0 4
v 4 0 4
v -4 0 -4
v 4 0 -4
v -4 8 4
v -3 8 4
v 4 8 4
v 3 8 -3
v 4 8 -3
v -4 8 -4
v -3 8 -4
v 3 8 -4
v 4 8 -4

# faces
f 3/1/1 2/1/1 1/1/1
f 4/1/1 2/1/1 3/1/1
f 5/1/2 6/1/2 7/1/2
f 7/1/2 6/1/2 8/1/2
f 7/2/2 8/2/2 9/2/2
f 8/1/2 6/1/2 10/1/2
f 9/2/2 8/2/2 10/2/2
f 10/1/2 6/1/2 11/1/2
f 14/1/3 13/1/3 12/1/3
f 15/1/3 13/1/3 14/1/3
f 16/1/3 14/1/3 12/1/3
f 17/2/3 15/2/3 14/2/3
f 17/1/3 14/1/3 16/1/3
f 18/2/3 15/2/3 17/2/3
f 19/1/4 20/1/4 21/1/4
f 21/1/4 20/1/4 22/1/4
f 19/1/4 21/1/4 23/1/4
f 21/2/4 22/2/4 23/2/4
f 23/2/4 22/2/4 24/2/4
f 19/1/4 23/1/4 25/1/4
f 23/1/4 24/1/4 25/1/4
f 25/1/4 24/1/4 26/1/4
f 29/1/5 28/1/5 27/1/5
f 30/1/5 28/1/5 29/1/5
f 32/2/6 33/2/6 34/2/6
f 34/2/6 33/2/6 35/2/6
f 31/1/6 32/1/6 36/1/6
f 32/2/6 34/2/6 37/2/6
f 36/1/6 32/1/6 37/1/6
f 34/1/6 35/1/6 38/1/6
f 37/2/6 34/2/6 38/2/6
f 38/1/6 35/1/6 39/1/6
