# MagicaVoxel @ Ephtracy

# group
g twoadjacentsides

# material
mtllib twoadjacentsides.mtl
usemtl palette

# normals
vn -1 0 0
vn 1 0 0
vn 0 0 1
vn 0 0 -1
vn 0 -1 0
vn 0 1 0

# texcoords
vt 0.537109 0.5
vt 0.896484 0.5

# verts
v -4 0 4
v -4 0 -4
v -4 8 4
v -4 8 -4
v 4 0 4
v 4 0 -4
v 4 6 4
v 4 6 -3
v 4 8 4
v 4 8 -3
v 4 8 -4
v -4 0 4
v -4 8 4
v -3 6 4
v -3 8 4
v 4 0 4
v 4 6 4
v 4 8 4
v -4 0 -4
v -4 8 -4
v 4 0 -4
v 4 8 -4
v -4 0 4
v 4 0 4
v -4 0 -4
v 4 0 -4
v -4 8 4
v -3 8 4
v 4 8 4
v -3 8 -3
v 4 8 -3
v -4 8 -4
v 4 8 -4

# faces
f 3/1/1 2/1/1 1/1/1
f 4/1/1 2/1/1 3/1/1
f 5/1/2 6/1/2 7/1/2
f 7/1/2 6/1/2 8/1/2
f 7/2/2 8/2/2 9/2/2
f 8/1/2 6/1/2 10/1/2
f 9/2/2 8/2/2 10/2/2
f 10/1/2 6/1/2 11/1/2
f 14/1/3 13/1/3 12/1/3
f 15/1/3 13/1/3 14/1/3
f 16/1/3 14/1/3 12/1/3
f 17/2/3 15/2/3 14/2/3
f 17/1/3 14/1/3 16/1/3
f 18/2/3 15/2/3 17/2/3
f 19/1/4 20/1/4 21/1/4
f 21/1/4 20/1/4 22/1/4
f 25/1/5 24/1/5 23/1/5
f 26/1/5 24/1/5 25/1/5
f 27/1/6 28/1/6 30/1/6
f 28/2/6 29/2/6 30/2/6
f 30/2/6 29/2/6 31/2/6
f 27/1/6 30/1/6 32/1/6
f 30/1/6 31/1/6 32/1/6
f 32/1/6 31/1/6 33/1/6
