# Blender v2.80 (sub 48) OBJ File: 'blendercube.blend'
# www.blender.org
mtllib twooppositesides.mtl
o twooppositesides
v -1.000000 2.000000 1.000000
v -1.000000 0.000000 -1.000000
v -1.000000 -0.000000 1.000000
v -1.000000 2.000000 -1.000000
v 1.000000 -0.000000 1.000000
v 1.000000 0.000000 -1.000000
v 1.000000 2.000000 1.000000
v 1.000000 2.000000 -1.000000
v -0.750000 1.500000 1.000000
v -1.000000 2.000000 1.000000
v -1.000000 -0.000000 1.000000
v -0.750000 2.000000 1.000000
v 0.750000 1.500000 1.000000
v 0.750000 2.000000 1.000000
v 1.000000 -0.000000 1.000000
v 1.000000 2.000000 1.000000
v -1.000000 0.000000 -1.000000
v -1.000000 2.000000 -1.000000
v -0.750000 1.500000 -1.000000
v -0.750000 2.000000 -1.000000
v 0.750000 1.500000 -1.000000
v 0.750000 2.000000 -1.000000
v 1.000000 0.000000 -1.000000
v 1.000000 2.000000 -1.000000
v -1.000000 0.000000 -1.000000
v 1.000000 -0.000000 1.000000
v -1.000000 -0.000000 1.000000
v 1.000000 0.000000 -1.000000
v -1.000000 2.000000 1.000000
v -0.750000 2.000000 1.000000
v -1.000000 2.000000 -1.000000
v 0.750000 2.000000 1.000000
v -0.750000 2.000000 -1.000000
v 1.000000 2.000000 1.000000
v 0.750000 2.000000 -1.000000
v 1.000000 2.000000 -1.000000
vt 0.537109 0.500000
vt 0.537109 0.500000
vt 0.537109 0.500000
vt 0.537109 0.500000
vt 0.537109 0.500000
vt 0.537109 0.500000
vt 0.537109 0.500000
vt 0.537109 0.500000
vt 0.537109 0.500000
vt 0.537109 0.500000
vt 0.537109 0.500000
vt 0.537109 0.500000
vt 0.537109 0.500000
vt 0.896484 0.500000
vt 0.896484 0.500000
vt 0.896484 0.500000
vt 0.896484 0.500000
vt 0.537109 0.500000
vt 0.537109 0.500000
vt 0.537109 0.500000
vt 0.537109 0.500000
vt 0.537109 0.500000
vt 0.537109 0.500000
vt 0.537109 0.500000
vt 0.537109 0.500000
vt 0.896484 0.500000
vt 0.896484 0.500000
vt 0.896484 0.500000
vt 0.896484 0.500000
vt 0.537109 0.500000
vt 0.537109 0.500000
vt 0.537109 0.500000
vt 0.537109 0.500000
vt 0.537109 0.500000
vt 0.537109 0.500000
vt 0.537109 0.500000
vt 0.537109 0.500000
vt 0.537109 0.500000
vt 0.537109 0.500000
vt 0.896484 0.500000
vt 0.896484 0.500000
vt 0.896484 0.500000
vt 0.537109 0.500000
vt 0.537109 0.500000
vt 0.537109 0.500000
vt 0.537109 0.500000
vt 0.896484 0.500000
vt 0.537109 0.500000
vn -1.0000 0.0000 0.0000
vn 1.0000 0.0000 0.0000
vn 0.0000 -0.0000 1.0000
vn 0.0000 0.0000 -1.0000
vn 0.0000 -1.0000 -0.0000
vn 0.0000 1.0000 0.0000
usemtl palette.012
s 1
f 1/1/1 2/2/1 3/3/1
f 4/4/1 2/2/1 1/1/1
f 5/5/2 6/6/2 7/7/2
f 7/7/2 6/6/2 8/8/2
f 9/9/3 10/10/3 11/11/3
f 12/12/3 10/10/3 9/9/3
f 13/13/3 9/9/3 11/11/3
f 13/14/3 12/15/3 9/16/3
f 14/17/3 12/15/3 13/14/3
f 15/18/3 13/13/3 11/11/3
f 15/18/3 14/19/3 13/13/3
f 16/20/3 14/19/3 15/18/3
f 17/21/4 18/22/4 19/23/4
f 19/23/4 18/22/4 20/24/4
f 17/21/4 19/23/4 21/25/4
f 19/26/4 20/27/4 21/28/4
f 21/28/4 20/27/4 22/29/4
f 17/21/4 21/25/4 23/30/4
f 21/25/4 22/31/4 23/30/4
f 23/30/4 22/31/4 24/32/4
f 25/33/5 26/34/5 27/35/5
f 28/36/5 26/34/5 25/33/5
f 29/37/6 30/38/6 31/39/6
f 30/40/6 32/41/6 33/42/6
f 31/39/6 30/38/6 33/43/6
f 32/44/6 34/45/6 35/46/6
f 33/42/6 32/41/6 35/47/6
f 35/46/6 34/45/6 36/48/6
