# MagicaVoxel @ Ephtracy

# group
g onecorner

# material
mtllib onecorner.mtl
usemtl palette

# normals
vn -1 0 0
vn 1 0 0
vn 0 0 1
vn 0 0 -1
vn 0 -1 0
vn 0 1 0

# texcoords
vt 0.0800781 0.5
vt 0.185547 0.5
vt 0.197266 0.5
vt 0.275391 0.5
vt 0.294922 0.5
vt 0.302734 0.5
vt 0.314453 0.5
vt 0.349609 0.5
vt 0.353516 0.5
vt 0.357422 0.5
vt 0.365234 0.5
vt 0.369141 0.5
vt 0.416016 0.5
vt 0.423828 0.5
vt 0.451172 0.5
vt 0.474609 0.5
vt 0.517578 0.5
vt 0.751953 0.5
vt 0.939453 0.5
vt 0.955078 0.5

# verts
v -8.5 0 8.5
v -8.5 0 7.5
v -8.5 0 6.5
v -8.5 0 4.5
v -8.5 0 3.5
v -8.5 0 -8.5
v -8.5 1 8.5
v -8.5 1 7.5
v -8.5 1 6.5
v -8.5 1 4.5
v -8.5 1 3.5
v -8.5 1 -8.5
v 8.5 0 8.5
v 8.5 0 -8.5
v 8.5 1 8.5
v 8.5 1 -8.5
v -8.5 0 8.5
v -8.5 1 8.5
v -7.5 0 8.5
v -7.5 1 8.5
v -6.5 0 8.5
v -6.5 1 8.5
v -4.5 0 8.5
v -4.5 1 8.5
v 8.5 0 8.5
v 8.5 1 8.5
v -8.5 0 -8.5
v -8.5 1 -8.5
v 8.5 0 -8.5
v 8.5 1 -8.5
v -8.5 0 8.5
v -7.5 0 8.5
v -6.5 0 8.5
v -4.5 0 8.5
v 8.5 0 8.5
v -8.5 0 7.5
v -7.5 0 7.5
v -6.5 0 7.5
v -5.5 0 7.5
v -4.5 0 7.5
v -0.5 0 7.5
v 0.5 0 7.5
v -8.5 0 6.5
v -7.5 0 6.5
v -6.5 0 6.5
v -5.5 0 6.5
v -4.5 0 6.5
v -0.5 0 6.5
v 0.5 0 6.5
v -7.5 0 5.5
v -6.5 0 5.5
v -5.5 0 5.5
v -4.5 0 5.5
v -0.5 0 5.5
v 0.5 0 5.5
v -8.5 0 4.5
v -7.5 0 4.5
v -6.5 0 4.5
v -5.5 0 4.5
v -4.5 0 4.5
v -8.5 0 3.5
v -7.5 0 3.5
v -6.5 0 3.5
v -5.5 0 3.5
v -4.5 0 3.5
v -5.5 0 2.5
v -4.5 0 2.5
v -2.5 0 2.5
v -1.5 0 2.5
v -5.5 0 1.5
v -4.5 0 1.5
v -2.5 0 1.5
v -1.5 0 1.5
v 5.5 0 -0.5
v 6.5 0 -0.5
v 7.5 0 -0.5
v 0.5 0 -1.5
v 1.5 0 -1.5
v 5.5 0 -1.5
v 6.5 0 -1.5
v 7.5 0 -1.5
v 0.5 0 -2.5
v 1.5 0 -2.5
v 2.5 0 -5.5
v 3.5 0 -5.5
v 2.5 0 -6.5
v 3.5 0 -6.5
v -8.5 0 -8.5
v 8.5 0 -8.5
v -8.5 1 8.5
v -7.5 1 8.5
v -6.5 1 8.5
v -4.5 1 8.5
v 8.5 1 8.5
v -8.5 1 7.5
v -7.5 1 7.5
v -6.5 1 7.5
v -5.5 1 7.5
v -4.5 1 7.5
v -0.5 1 7.5
v 0.5 1 7.5
v -8.5 1 6.5
v -7.5 1 6.5
v -6.5 1 6.5
v -5.5 1 6.5
v -4.5 1 6.5
v -0.5 1 6.5
v 0.5 1 6.5
v -7.5 1 5.5
v -6.5 1 5.5
v -5.5 1 5.5
v -4.5 1 5.5
v -0.5 1 5.5
v 0.5 1 5.5
v -8.5 1 4.5
v -7.5 1 4.5
v -6.5 1 4.5
v -5.5 1 4.5
v -4.5 1 4.5
v -8.5 1 3.5
v -7.5 1 3.5
v -6.5 1 3.5
v -5.5 1 3.5
v -4.5 1 3.5
v -5.5 1 2.5
v -4.5 1 2.5
v -2.5 1 2.5
v -1.5 1 2.5
v -5.5 1 1.5
v -4.5 1 1.5
v -2.5 1 1.5
v -1.5 1 1.5
v 5.5 1 -0.5
v 6.5 1 -0.5
v 7.5 1 -0.5
v 0.5 1 -1.5
v 1.5 1 -1.5
v 5.5 1 -1.5
v 6.5 1 -1.5
v 7.5 1 -1.5
v 0.5 1 -2.5
v 1.5 1 -2.5
v 2.5 1 -5.5
v 3.5 1 -5.5
v 2.5 1 -6.5
v 3.5 1 -6.5
v -8.5 1 -8.5
v 8.5 1 -8.5

# faces
f 7/3/1 2/3/1 1/3/1
f 8/10/1 3/10/1 2/10/1
f 8/3/1 2/3/1 7/3/1
f 9/9/1 4/9/1 3/9/1
f 9/10/1 3/10/1 8/10/1
f 10/2/1 5/2/1 4/2/1
f 10/9/1 4/9/1 9/9/1
f 11/6/1 6/6/1 5/6/1
f 11/2/1 5/2/1 10/2/1
f 12/6/1 6/6/1 11/6/1
f 13/6/2 14/6/2 15/6/2
f 15/6/2 14/6/2 16/6/2
f 19/3/3 18/3/3 17/3/3
f 20/3/3 18/3/3 19/3/3
f 21/20/3 20/20/3 19/20/3
f 22/20/3 20/20/3 21/20/3
f 23/19/3 22/19/3 21/19/3
f 24/19/3 22/19/3 23/19/3
f 25/6/3 24/6/3 23/6/3
f 26/6/3 24/6/3 25/6/3
f 27/6/4 28/6/4 29/6/4
f 29/6/4 28/6/4 30/6/4
f 36/3/5 32/3/5 31/3/5
f 37/20/5 33/20/5 32/20/5
f 37/3/5 32/3/5 36/3/5
f 38/19/5 34/19/5 33/19/5
f 38/20/5 33/20/5 37/20/5
f 39/19/5 34/19/5 38/19/5
f 40/6/5 35/6/5 34/6/5
f 40/19/5 34/19/5 39/19/5
f 41/6/5 35/6/5 40/6/5
f 42/6/5 35/6/5 41/6/5
f 43/10/5 37/10/5 36/10/5
f 44/9/5 38/9/5 37/9/5
f 44/10/5 37/10/5 43/10/5
f 45/11/5 39/11/5 38/11/5
f 45/9/5 38/9/5 44/9/5
f 46/12/5 40/12/5 39/12/5
f 46/11/5 39/11/5 45/11/5
f 47/6/5 41/6/5 40/6/5
f 47/12/5 40/12/5 46/12/5
f 48/18/5 42/18/5 41/18/5
f 48/6/5 41/6/5 47/6/5
f 49/6/5 35/6/5 42/6/5
f 49/18/5 42/18/5 48/18/5
f 50/9/5 44/9/5 43/9/5
f 50/13/5 45/13/5 44/13/5
f 50/13/5 46/13/5 45/13/5
f 51/13/5 46/13/5 50/13/5
f 52/14/5 47/14/5 46/14/5
f 52/13/5 46/13/5 51/13/5
f 53/6/5 48/6/5 47/6/5
f 53/14/5 47/14/5 52/14/5
f 54/5/5 49/5/5 48/5/5
f 54/6/5 48/6/5 53/6/5
f 55/6/5 35/6/5 49/6/5
f 55/5/5 49/5/5 54/5/5
f 56/9/5 51/9/5 50/9/5
f 56/9/5 50/9/5 43/9/5
f 57/9/5 51/9/5 56/9/5
f 58/17/5 52/17/5 51/17/5
f 58/9/5 51/9/5 57/9/5
f 59/16/5 53/16/5 52/16/5
f 59/17/5 52/17/5 58/17/5
f 60/6/5 54/6/5 53/6/5
f 60/16/5 53/16/5 59/16/5
f 60/6/5 55/6/5 54/6/5
f 61/2/5 57/2/5 56/2/5
f 62/13/5 58/13/5 57/13/5
f 62/2/5 57/2/5 61/2/5
f 63/8/5 59/8/5 58/8/5
f 63/13/5 58/13/5 62/13/5
f 64/15/5 60/15/5 59/15/5
f 64/8/5 59/8/5 63/8/5
f 65/6/5 55/6/5 60/6/5
f 65/15/5 60/15/5 64/15/5
f 66/6/5 62/6/5 61/6/5
f 66/6/5 64/6/5 63/6/5
f 66/6/5 65/6/5 64/6/5
f 66/6/5 63/6/5 62/6/5
f 67/6/5 55/6/5 65/6/5
f 67/6/5 65/6/5 66/6/5
f 68/6/5 55/6/5 67/6/5
f 69/6/5 55/6/5 68/6/5
f 70/6/5 66/6/5 61/6/5
f 70/7/5 67/7/5 66/7/5
f 71/6/5 68/6/5 67/6/5
f 71/7/5 67/7/5 70/7/5
f 72/4/5 69/4/5 68/4/5
f 72/6/5 68/6/5 71/6/5
f 73/6/5 55/6/5 69/6/5
f 73/4/5 69/4/5 72/4/5
f 74/6/5 72/6/5 71/6/5
f 74/6/5 55/6/5 73/6/5
f 74/6/5 73/6/5 72/6/5
f 74/6/5 35/6/5 55/6/5
f 74/6/5 71/6/5 70/6/5
f 75/6/5 35/6/5 74/6/5
f 76/6/5 35/6/5 75/6/5
f 77/6/5 74/6/5 70/6/5
f 78/6/5 74/6/5 77/6/5
f 79/4/5 75/4/5 74/4/5
f 79/6/5 74/6/5 78/6/5
f 80/1/5 76/1/5 75/1/5
f 80/4/5 75/4/5 79/4/5
f 81/6/5 35/6/5 76/6/5
f 81/1/5 76/1/5 80/1/5
f 82/18/5 78/18/5 77/18/5
f 82/6/5 77/6/5 70/6/5
f 83/6/5 80/6/5 79/6/5
f 83/18/5 78/18/5 82/18/5
f 83/6/5 79/6/5 78/6/5
f 83/6/5 81/6/5 80/6/5
f 84/6/5 83/6/5 82/6/5
f 84/6/5 81/6/5 83/6/5
f 85/6/5 81/6/5 84/6/5
f 86/6/5 84/6/5 82/6/5
f 86/4/5 85/4/5 84/4/5
f 87/6/5 81/6/5 85/6/5
f 87/4/5 85/4/5 86/4/5
f 88/6/5 70/6/5 61/6/5
f 88/6/5 82/6/5 70/6/5
f 88/6/5 87/6/5 86/6/5
f 88/6/5 86/6/5 82/6/5
f 89/6/5 81/6/5 87/6/5
f 89/6/5 87/6/5 88/6/5
f 89/6/5 35/6/5 81/6/5
f 90/3/6 91/3/6 95/3/6
f 91/20/6 92/20/6 96/20/6
f 95/3/6 91/3/6 96/3/6
f 92/19/6 93/19/6 97/19/6
f 96/20/6 92/20/6 97/20/6
f 97/19/6 93/19/6 98/19/6
f 93/6/6 94/6/6 99/6/6
f 98/19/6 93/19/6 99/19/6
f 99/6/6 94/6/6 100/6/6
f 100/6/6 94/6/6 101/6/6
f 95/10/6 96/10/6 102/10/6
f 96/9/6 97/9/6 103/9/6
f 102/10/6 96/10/6 103/10/6
f 97/11/6 98/11/6 104/11/6
f 103/9/6 97/9/6 104/9/6
f 98/12/6 99/12/6 105/12/6
f 104/11/6 98/11/6 105/11/6
f 99/6/6 100/6/6 106/6/6
f 105/12/6 99/12/6 106/12/6
f 100/18/6 101/18/6 107/18/6
f 106/6/6 100/6/6 107/6/6
f 101/6/6 94/6/6 108/6/6
f 107/18/6 101/18/6 108/18/6
f 102/9/6 103/9/6 109/9/6
f 103/13/6 104/13/6 109/13/6
f 104/13/6 105/13/6 109/13/6
f 109/13/6 105/13/6 110/13/6
f 105/14/6 106/14/6 111/14/6
f 110/13/6 105/13/6 111/13/6
f 106/6/6 107/6/6 112/6/6
f 111/14/6 106/14/6 112/14/6
f 107/5/6 108/5/6 113/5/6
f 112/6/6 107/6/6 113/6/6
f 108/6/6 94/6/6 114/6/6
f 113/5/6 108/5/6 114/5/6
f 109/9/6 110/9/6 115/9/6
f 102/9/6 109/9/6 115/9/6
f 115/9/6 110/9/6 116/9/6
f 110/17/6 111/17/6 117/17/6
f 116/9/6 110/9/6 117/9/6
f 111/16/6 112/16/6 118/16/6
f 117/17/6 111/17/6 118/17/6
f 112/6/6 113/6/6 119/6/6
f 118/16/6 112/16/6 119/16/6
f 113/6/6 114/6/6 119/6/6
f 115/2/6 116/2/6 120/2/6
f 116/13/6 117/13/6 121/13/6
f 120/2/6 116/2/6 121/2/6
f 117/8/6 118/8/6 122/8/6
f 121/13/6 117/13/6 122/13/6
f 118/15/6 119/15/6 123/15/6
f 122/8/6 118/8/6 123/8/6
f 119/6/6 114/6/6 124/6/6
f 123/15/6 119/15/6 124/15/6
f 120/6/6 121/6/6 125/6/6
f 122/6/6 123/6/6 125/6/6
f 123/6/6 124/6/6 125/6/6
f 121/6/6 122/6/6 125/6/6
f 124/6/6 114/6/6 126/6/6
f 125/6/6 124/6/6 126/6/6
f 126/6/6 114/6/6 127/6/6
f 127/6/6 114/6/6 128/6/6
f 120/6/6 125/6/6 129/6/6
f 125/7/6 126/7/6 129/7/6
f 126/6/6 127/6/6 130/6/6
f 129/7/6 126/7/6 130/7/6
f 127/4/6 128/4/6 131/4/6
f 130/6/6 127/6/6 131/6/6
f 128/6/6 114/6/6 132/6/6
f 131/4/6 128/4/6 132/4/6
f 130/6/6 131/6/6 133/6/6
f 132/6/6 114/6/6 133/6/6
f 131/6/6 132/6/6 133/6/6
f 114/6/6 94/6/6 133/6/6
f 129/6/6 130/6/6 133/6/6
f 133/6/6 94/6/6 134/6/6
f 134/6/6 94/6/6 135/6/6
f 129/6/6 133/6/6 136/6/6
f 136/6/6 133/6/6 137/6/6
f 133/4/6 134/4/6 138/4/6
f 137/6/6 133/6/6 138/6/6
f 134/1/6 135/1/6 139/1/6
f 138/4/6 134/4/6 139/4/6
f 135/6/6 94/6/6 140/6/6
f 139/1/6 135/1/6 140/1/6
f 136/18/6 137/18/6 141/18/6
f 129/6/6 136/6/6 141/6/6
f 138/6/6 139/6/6 142/6/6
f 141/18/6 137/18/6 142/18/6
f 137/6/6 138/6/6 142/6/6
f 139/6/6 140/6/6 142/6/6
f 141/6/6 142/6/6 143/6/6
f 142/6/6 140/6/6 143/6/6
f 143/6/6 140/6/6 144/6/6
f 141/6/6 143/6/6 145/6/6
f 143/4/6 144/4/6 145/4/6
f 144/6/6 140/6/6 146/6/6
f 145/4/6 144/4/6 146/4/6
f 120/6/6 129/6/6 147/6/6
f 129/6/6 141/6/6 147/6/6
f 145/6/6 146/6/6 147/6/6
f 141/6/6 145/6/6 147/6/6
f 146/6/6 140/6/6 148/6/6
f 147/6/6 146/6/6 148/6/6
f 140/6/6 94/6/6 148/6/6
