# Blender v2.80 (sub 48) OBJ File: ''
# www.blender.org
mtllib grass.mtl
o grass
v -0.100000 -0.100000 0.100000
v -0.100000 -0.300000 -0.100000
v -0.100000 -0.300000 0.100000
v -0.100000 -0.100000 -0.100000
v -0.100000 0.100000 0.100000
v -0.100000 0.100000 -0.100000
v -0.100000 0.300000 0.100000
v -0.100000 0.300000 -0.100000
v 0.100000 -0.300000 0.100000
v 0.100000 -0.300000 -0.100000
v 0.100000 -0.100000 0.100000
v 0.100000 -0.100000 -0.100000
v 0.100000 0.100000 0.100000
v 0.100000 0.100000 -0.100000
v 0.100000 0.300000 0.100000
v 0.100000 0.300000 -0.100000
v 0.100000 -0.300000 0.100000
v -0.100000 -0.100000 0.100000
v -0.100000 -0.300000 0.100000
v 0.100000 -0.100000 0.100000
v -0.100000 0.100000 0.100000
v 0.100000 0.100000 0.100000
v -0.100000 0.300000 0.100000
v 0.100000 0.300000 0.100000
v -0.100000 -0.300000 -0.100000
v -0.100000 -0.100000 -0.100000
v 0.100000 -0.300000 -0.100000
v -0.100000 0.100000 -0.100000
v 0.100000 -0.100000 -0.100000
v -0.100000 0.300000 -0.100000
v 0.100000 0.100000 -0.100000
v 0.100000 0.300000 -0.100000
v -0.100000 -0.300000 -0.100000
v 0.100000 -0.300000 0.100000
v -0.100000 -0.300000 0.100000
v 0.100000 -0.300000 -0.100000
v -0.100000 0.300000 0.100000
v 0.100000 0.300000 0.100000
v -0.100000 0.300000 -0.100000
v 0.100000 0.300000 -0.100000
vt 0.630859 0.500000
vt 0.630859 0.500000
vt 0.630859 0.500000
vt 0.630859 0.500000
vt 0.607422 0.500000
vt 0.607422 0.500000
vt 0.607422 0.500000
vt 0.607422 0.500000
vt 0.583984 0.500000
vt 0.583984 0.500000
vt 0.583984 0.500000
vt 0.583984 0.500000
vt 0.630859 0.500000
vt 0.630859 0.500000
vt 0.630859 0.500000
vt 0.630859 0.500000
vt 0.607422 0.500000
vt 0.607422 0.500000
vt 0.607422 0.500000
vt 0.607422 0.500000
vt 0.583984 0.500000
vt 0.583984 0.500000
vt 0.583984 0.500000
vt 0.583984 0.500000
vt 0.630859 0.500000
vt 0.630859 0.500000
vt 0.630859 0.500000
vt 0.607422 0.500000
vt 0.607422 0.500000
vt 0.607422 0.500000
vt 0.630859 0.500000
vt 0.583984 0.500000
vt 0.583984 0.500000
vt 0.583984 0.500000
vt 0.607422 0.500000
vt 0.583984 0.500000
vt 0.630859 0.500000
vt 0.630859 0.500000
vt 0.630859 0.500000
vt 0.607422 0.500000
vt 0.607422 0.500000
vt 0.607422 0.500000
vt 0.630859 0.500000
vt 0.583984 0.500000
vt 0.583984 0.500000
vt 0.583984 0.500000
vt 0.607422 0.500000
vt 0.583984 0.500000
vt 0.630859 0.500000
vt 0.630859 0.500000
vt 0.630859 0.500000
vt 0.630859 0.500000
vt 0.583984 0.500000
vt 0.583984 0.500000
vt 0.583984 0.500000
vt 0.583984 0.500000
vn -1.0000 0.0000 0.0000
vn 1.0000 0.0000 0.0000
vn 0.0000 -0.0000 1.0000
vn 0.0000 0.0000 -1.0000
vn 0.0000 -1.0000 -0.0000
vn 0.0000 1.0000 0.0000
usemtl palette.024
s 1
f 1/1/1 2/2/1 3/3/1
f 4/4/1 2/2/1 1/1/1
f 5/5/1 4/6/1 1/7/1
f 6/8/1 4/6/1 5/5/1
f 7/9/1 6/10/1 5/11/1
f 8/12/1 6/10/1 7/9/1
f 9/13/2 10/14/2 11/15/2
f 11/15/2 10/14/2 12/16/2
f 11/17/2 12/18/2 13/19/2
f 13/19/2 12/18/2 14/20/2
f 13/21/2 14/22/2 15/23/2
f 15/23/2 14/22/2 16/24/2
f 17/25/3 18/26/3 19/27/3
f 20/28/3 21/29/3 18/30/3
f 20/31/3 18/26/3 17/25/3
f 22/32/3 23/33/3 21/34/3
f 22/35/3 21/29/3 20/28/3
f 24/36/3 23/33/3 22/32/3
f 25/37/4 26/38/4 27/39/4
f 26/40/4 28/41/4 29/42/4
f 27/39/4 26/38/4 29/43/4
f 28/44/4 30/45/4 31/46/4
f 29/42/4 28/41/4 31/47/4
f 31/46/4 30/45/4 32/48/4
f 33/49/5 34/50/5 35/51/5
f 36/52/5 34/50/5 33/49/5
f 37/53/6 38/54/6 39/55/6
f 39/55/6 38/54/6 40/56/6
